{"glyphs":{"0":{"ha":772,"x_min":47,"x_max":725,"o":"m 386 907 q 519 864 469 907 q 595 757 569 821 q 629 618 621 693 q 638 481 638 543 q 629 342 638 417 q 595 203 621 268 q 519 96 569 139 q 386 53 469 53 q 253 96 303 53 q 177 203 203 139 q 143 342 151 268 q 135 481 135 417 q 143 618 135 543 q 177 757 151 693 q 253 864 203 821 q 386 907 303 907 m 386 981 q 213 934 279 981 q 110 815 147 888 q 60 653 74 743 q 47 479 47 564 q 60 306 47 394 q 110 144 74 217 q 213 26 147 72 q 386 -21 279 -21 q 558 26 492 -21 q 662 144 625 72 q 712 306 699 217 q 725 481 725 394 q 712 654 725 565 q 662 815 699 743 q 558 934 625 888 q 386 981 492 981 z "},"1":{"ha":772,"x_min":135,"x_max":479,"o":"m 135 722 l 392 722 l 392 0 l 479 0 l 479 972 l 408 972 q 376 868 399 906 q 319 813 353 831 q 238 791 285 796 q 135 785 192 786 l 135 722 z "},"2":{"ha":772,"x_min":50,"x_max":690,"o":"m 690 81 l 150 81 q 192 170 158 129 q 269 246 225 211 q 359 309 313 281 q 442 361 406 338 q 533 427 489 392 q 612 504 578 463 q 666 596 646 546 q 686 707 686 646 q 663 826 686 775 q 599 911 639 876 q 503 963 558 946 q 385 981 449 981 q 247 955 306 981 q 149 883 188 929 q 91 774 110 838 q 74 636 72 711 l 161 636 q 172 739 160 690 q 210 825 183 788 q 278 885 236 863 q 381 907 321 907 q 465 894 425 907 q 534 855 504 881 q 581 792 564 829 q 599 708 599 756 q 578 608 599 650 q 518 525 558 565 q 426 449 476 483 q 325 380 376 414 q 225 309 274 346 q 138 228 176 272 q 76 128 100 183 q 50 0 51 72 l 690 0 l 690 81 z "},"3":{"ha":772,"x_min":40,"x_max":713,"o":"m 46 310 q 63 170 40 232 q 131 66 86 108 q 240 1 176 24 q 378 -21 303 -21 q 506 -1 444 -21 q 613 56 567 18 q 685 149 658 93 q 713 275 713 204 q 660 435 713 371 q 513 515 608 500 l 513 518 q 634 596 592 538 q 676 733 676 654 q 651 844 676 797 q 583 922 625 892 q 486 966 540 951 q 375 981 432 981 q 247 956 304 981 q 151 890 190 932 q 90 788 111 847 q 68 661 68 729 l 156 661 q 168 760 154 715 q 210 838 182 806 q 281 889 239 871 q 376 907 322 907 q 458 897 419 907 q 526 863 497 886 q 572 806 556 840 q 589 724 589 771 q 571 644 589 678 q 524 589 553 611 q 460 557 496 567 q 392 547 425 547 l 318 547 l 318 474 l 392 474 q 483 461 440 474 q 557 423 525 449 q 607 358 589 397 q 625 268 625 319 q 604 176 625 215 q 549 108 583 136 q 469 67 514 81 q 376 53 424 53 q 272 72 318 53 q 194 124 225 90 q 147 204 163 157 q 133 310 131 251 l 46 310 z "},"4":{"ha":772,"x_min":42,"x_max":717,"o":"m 42 242 l 490 242 l 490 0 l 571 0 l 571 242 l 717 242 l 717 315 l 571 315 l 571 972 l 492 972 l 42 326 l 42 242 m 121 315 l 488 844 l 490 844 l 490 315 l 121 315 z "},"5":{"ha":772,"x_min":50,"x_max":707,"o":"m 50 278 q 76 153 51 208 q 144 59 101 97 q 244 0 186 21 q 369 -21 301 -21 q 501 4 439 -21 q 608 73 563 29 q 681 177 654 117 q 707 308 707 238 q 684 444 707 382 q 619 550 661 506 q 516 619 576 594 q 381 644 456 644 q 267 621 324 644 q 175 554 211 597 l 172 557 l 235 879 l 660 879 l 660 960 l 174 960 l 79 456 l 154 456 q 248 541 190 511 q 371 571 306 571 q 471 551 425 571 q 549 498 517 532 q 601 418 582 464 q 619 318 619 372 q 603 217 619 265 q 554 132 586 168 q 477 74 522 96 q 376 53 432 53 q 283 69 326 53 q 208 115 240 85 q 158 186 176 144 q 138 278 139 228 l 50 278 z "},"6":{"ha":772,"x_min":56,"x_max":725,"o":"m 403 560 q 502 540 458 560 q 576 485 546 519 q 622 403 606 450 q 638 303 638 356 q 621 207 638 253 q 573 127 604 161 q 499 73 542 93 q 404 53 456 53 q 294 72 340 53 q 219 126 249 92 q 175 206 189 160 q 161 303 161 251 q 177 403 161 357 q 224 485 193 450 q 301 540 256 519 q 403 560 346 560 m 701 726 q 609 917 686 854 q 403 981 532 981 q 267 953 324 981 q 172 881 210 925 q 110 781 133 836 q 75 673 88 726 q 59 572 63 619 q 56 496 56 525 q 76 256 56 354 q 138 95 96 157 q 243 6 179 33 q 396 -21 307 -21 q 528 4 468 -21 q 633 73 589 29 q 701 177 676 117 q 725 308 725 238 q 702 439 725 379 q 638 542 679 499 q 536 609 596 585 q 404 633 476 633 q 251 589 321 633 q 146 472 181 544 l 143 472 q 153 615 143 539 q 192 756 163 690 q 274 864 221 821 q 411 907 326 907 q 549 857 496 907 q 614 726 603 807 l 701 726 z "},"7":{"ha":772,"x_min":71,"x_max":696,"o":"m 71 879 l 608 879 q 435 658 507 764 q 316 448 364 553 q 242 233 268 343 q 208 0 217 124 l 303 0 q 356 310 311 169 q 462 562 401 451 q 586 752 522 672 q 696 879 650 832 l 696 960 l 71 960 l 71 879 z "},"8":{"ha":772,"x_min":51,"x_max":721,"o":"m 386 53 q 290 67 335 53 q 211 108 244 81 q 158 176 178 135 q 139 272 139 218 q 159 366 139 326 q 213 432 179 406 q 291 472 246 458 q 386 483 336 485 q 480 472 435 485 q 559 431 525 458 q 613 365 593 404 q 633 272 633 325 q 614 175 633 217 q 561 106 594 133 q 483 66 528 79 q 386 53 438 53 m 681 738 q 655 846 681 800 q 587 922 629 892 q 492 966 544 951 q 385 981 439 981 q 278 966 331 981 q 183 922 225 951 q 116 846 142 892 q 90 738 90 800 q 131 602 90 657 q 249 524 172 547 l 249 521 q 106 436 158 504 q 51 272 54 368 q 78 144 51 199 q 150 52 104 89 q 257 -3 196 15 q 386 -21 318 -21 q 515 -3 454 -21 q 622 52 576 15 q 694 144 668 89 q 721 272 721 199 q 669 436 721 371 q 522 521 617 501 l 522 524 q 639 602 597 546 q 681 738 681 658 m 386 557 q 310 565 347 556 q 243 597 272 575 q 196 654 214 619 q 178 738 178 689 q 195 811 178 779 q 242 864 213 843 q 308 896 271 885 q 386 907 346 907 q 467 896 429 907 q 533 864 506 885 q 577 811 561 843 q 593 738 593 779 q 576 656 593 690 q 530 599 558 622 q 464 566 501 576 q 386 557 426 556 z "},"9":{"ha":772,"x_min":47,"x_max":717,"o":"m 369 400 q 270 420 314 400 q 197 475 226 440 q 151 557 167 510 q 135 657 135 604 q 151 753 135 707 q 199 833 168 799 q 273 887 231 867 q 368 907 315 907 q 478 888 432 907 q 553 834 524 868 q 597 754 583 800 q 611 657 611 708 q 595 556 611 603 q 548 475 579 510 q 472 420 517 440 q 369 400 426 400 m 71 233 q 163 42 86 106 q 369 -21 240 -21 q 506 7 449 -21 q 601 79 563 35 q 662 178 639 124 q 697 287 685 233 q 713 388 710 340 q 717 464 717 435 q 697 704 717 606 q 635 865 676 803 q 529 953 593 926 q 376 981 465 981 q 244 956 304 981 q 140 887 183 931 q 72 783 96 843 q 47 651 47 722 q 70 521 47 581 q 135 418 93 461 q 235 351 176 375 q 368 326 294 326 q 522 371 451 326 q 626 488 592 415 l 629 488 q 619 345 629 421 q 581 204 610 269 q 499 96 551 139 q 361 53 446 53 q 223 103 276 53 q 158 233 169 153 l 71 233 z "}," ":{"ha":386,"x_min":0,"x_max":0,"o":""}," ":{"ha":386,"x_min":0,"x_max":0,"o":""},"!":{"ha":335,"x_min":110,"x_max":226,"o":"m 142 247 l 194 247 l 215 696 l 215 992 l 121 992 l 121 696 l 142 247 m 226 0 l 226 147 l 110 147 l 110 0 l 226 0 z "},"\"":{"ha":514,"x_min":121,"x_max":393,"o":"m 121 654 l 208 654 l 208 992 l 121 992 l 121 654 m 306 654 l 393 654 l 393 992 l 306 992 l 306 654 z "},"#":{"ha":772,"x_min":49,"x_max":729,"o":"m 690 372 l 544 372 l 575 589 l 729 589 l 729 651 l 583 651 l 626 960 l 557 960 l 514 651 l 318 651 l 361 960 l 292 960 l 249 651 l 88 651 l 88 589 l 240 589 l 210 372 l 49 372 l 49 310 l 201 310 l 158 0 l 228 0 l 271 310 l 467 310 l 424 0 l 493 0 l 536 310 l 690 310 l 690 372 m 506 589 l 475 372 l 279 372 l 310 589 l 506 589 z "},"$":{"ha":772,"x_min":40,"x_max":732,"o":"m 411 453 q 493 429 451 443 q 568 394 535 415 q 623 339 601 372 q 644 256 644 306 q 624 163 644 201 q 572 100 604 125 q 497 64 539 75 q 411 53 456 53 l 411 453 m 357 551 q 281 572 318 561 q 216 603 244 583 q 170 653 188 622 q 153 732 153 683 q 169 826 153 786 q 213 890 185 865 q 278 927 242 915 q 357 939 315 939 l 357 551 m 40 317 q 120 77 46 158 q 357 -19 194 -4 l 357 -139 l 411 -139 l 411 -21 q 530 -3 472 -21 q 633 49 588 14 q 705 137 678 85 q 732 257 732 189 q 704 378 732 329 q 631 458 676 426 q 528 508 586 490 q 411 539 471 526 l 411 939 q 560 877 503 939 q 618 711 617 815 l 706 711 q 684 835 707 779 q 620 930 661 890 q 525 991 579 969 q 411 1013 471 1013 l 411 1121 l 357 1121 l 357 1013 q 243 994 296 1013 q 151 940 190 975 q 88 854 111 904 q 65 742 65 804 q 89 621 65 668 q 152 543 113 574 q 245 494 192 513 q 357 464 299 476 l 357 53 q 188 131 247 65 q 128 317 129 196 l 40 317 z "},"%":{"ha":1235,"x_min":96,"x_max":1147,"o":"m 317 918 q 388 899 360 918 q 433 851 417 881 q 457 785 450 821 q 464 717 464 750 q 457 649 464 683 q 433 585 450 614 q 388 537 417 556 q 317 518 360 518 q 244 537 272 518 q 199 585 215 556 q 176 649 182 614 q 169 717 169 683 q 176 785 169 750 q 199 851 182 821 q 244 899 215 881 q 317 918 272 918 m 264 -47 l 331 -47 l 958 1007 l 893 1007 l 264 -47 m 926 504 q 826 484 868 504 q 757 428 783 464 q 718 345 731 393 q 706 242 706 297 q 718 138 706 186 q 757 55 731 90 q 826 -1 783 19 q 926 -21 868 -21 q 1027 -1 985 -21 q 1096 55 1069 19 q 1135 138 1122 90 q 1147 242 1147 186 q 1135 345 1147 297 q 1096 428 1122 393 q 1027 484 1069 464 q 926 504 985 504 m 926 442 q 998 423 969 442 q 1043 374 1026 404 q 1067 309 1060 344 q 1074 240 1074 274 q 1067 172 1074 207 q 1043 108 1060 138 q 998 60 1026 79 q 926 42 969 42 q 853 60 882 42 q 808 108 825 79 q 785 172 792 138 q 779 240 779 207 q 785 309 779 274 q 808 374 792 344 q 853 423 825 404 q 926 442 882 442 m 317 981 q 216 960 258 981 q 147 905 174 940 q 108 822 121 869 q 96 718 96 774 q 108 615 96 663 q 147 531 121 567 q 216 476 174 496 q 317 456 258 456 q 417 476 375 456 q 486 531 460 496 q 525 615 513 567 q 538 718 538 663 q 525 822 538 774 q 486 905 513 869 q 417 960 460 940 q 317 981 375 981 z "},"&":{"ha":849,"x_min":54,"x_max":861,"o":"m 592 194 q 491 94 550 135 q 357 53 432 53 q 276 67 315 53 q 208 107 238 81 q 160 169 178 133 q 142 249 142 204 q 160 330 142 293 q 207 397 178 367 q 272 451 236 428 q 344 494 308 475 l 592 194 m 751 0 l 861 0 l 694 201 q 741 331 729 265 q 753 439 753 397 l 665 439 q 660 345 665 382 q 636 272 654 308 l 419 533 q 492 583 457 557 q 553 639 526 608 q 597 707 581 669 q 614 790 614 744 q 597 873 614 836 q 549 936 579 910 q 480 977 519 963 q 394 992 440 992 q 309 977 349 992 q 240 936 269 963 q 192 873 210 910 q 175 790 175 836 q 187 722 175 754 q 216 661 199 690 q 255 605 233 632 q 297 551 276 578 q 213 500 256 529 q 134 435 169 471 q 76 354 99 399 q 54 257 54 310 q 77 138 54 190 q 140 51 100 86 q 235 -3 181 15 q 354 -21 290 -21 q 517 20 442 -21 q 646 129 592 61 l 751 0 m 394 918 q 488 885 449 918 q 526 790 526 853 q 513 724 526 754 q 476 670 499 694 q 427 626 454 646 q 374 590 400 607 q 338 634 357 610 q 301 684 318 658 q 274 737 285 710 q 263 790 263 764 q 301 885 263 853 q 394 918 340 918 z "},"'":{"ha":386,"x_min":150,"x_max":238,"o":"m 150 654 l 238 654 l 238 992 l 150 992 l 150 654 z "},"(":{"ha":335,"x_min":71,"x_max":336,"o":"m 336 -265 q 263 -127 296 -201 q 208 25 231 -53 q 172 183 185 103 q 158 338 158 263 q 201 693 158 522 q 336 1013 243 864 l 267 1013 q 123 709 175 871 q 71 369 71 547 q 84 197 71 279 q 122 38 97 115 q 184 -114 147 -39 q 267 -265 221 -189 l 336 -265 z "},")":{"ha":335,"x_min":-1,"x_max":264,"o":"m -1 1013 q 71 874 38 947 q 127 722 104 800 q 163 565 150 644 q 176 410 176 485 q 134 54 176 225 q -1 -265 92 -117 l 68 -265 q 212 38 160 -124 q 264 378 264 200 q 251 550 264 468 q 213 709 238 632 q 151 861 188 786 q 68 1013 114 936 l -1 1013 z "},"*":{"ha":489,"x_min":38,"x_max":451,"o":"m 197 772 l 96 636 l 140 604 l 242 743 l 343 604 l 388 636 l 288 772 l 451 826 l 431 878 l 271 821 l 271 992 l 217 992 l 217 821 l 57 878 l 38 826 l 197 772 z "},"+":{"ha":833,"x_min":68,"x_max":767,"o":"m 381 386 l 68 386 l 68 313 l 381 313 l 381 0 l 454 0 l 454 313 l 767 313 l 767 386 l 454 386 l 454 699 l 381 699 l 381 386 z "},",":{"ha":386,"x_min":129,"x_max":251,"o":"m 135 147 l 135 0 l 193 0 q 191 -37 194 -17 q 179 -76 188 -57 q 158 -110 171 -94 q 129 -131 146 -125 l 129 -190 q 183 -162 160 -182 q 221 -117 206 -143 q 244 -62 236 -92 q 251 -1 251 -32 l 251 147 l 135 147 z "},"-":{"ha":514,"x_min":83,"x_max":431,"o":"m 431 342 l 431 422 l 83 422 l 83 342 l 431 342 z "},"­":{"ha":514,"x_min":83,"x_max":431,"o":"m 431 342 l 431 422 l 83 422 l 83 342 l 431 342 z "},".":{"ha":386,"x_min":135,"x_max":251,"o":"m 251 0 l 251 147 l 135 147 l 135 0 l 251 0 z "},"/":{"ha":463,"x_min":-18,"x_max":481,"o":"m 57 -21 l 481 1013 l 410 1013 l -18 -21 l 57 -21 z "},":":{"ha":386,"x_min":135,"x_max":251,"o":"m 251 547 l 251 694 l 135 694 l 135 547 l 251 547 m 251 0 l 251 147 l 135 147 l 135 0 l 251 0 z "},";":{"ha":386,"x_min":129,"x_max":251,"o":"m 135 147 l 135 0 l 193 0 q 191 -37 194 -17 q 179 -76 188 -57 q 158 -110 171 -94 q 129 -131 146 -125 l 129 -190 q 183 -162 160 -182 q 221 -117 206 -143 q 244 -62 236 -92 q 251 -1 251 -32 l 251 147 l 135 147 m 251 547 l 251 694 l 135 694 l 135 547 l 251 547 z "},";":{"ha":386,"x_min":129,"x_max":251,"o":"m 135 147 l 135 0 l 193 0 q 191 -37 194 -17 q 179 -76 188 -57 q 158 -110 171 -94 q 129 -131 146 -125 l 129 -190 q 183 -162 160 -182 q 221 -117 206 -143 q 244 -62 236 -92 q 251 -1 251 -32 l 251 147 l 135 147 m 251 547 l 251 694 l 135 694 l 135 547 l 251 547 z "},"<":{"ha":833,"x_min":64,"x_max":769,"o":"m 769 65 l 150 351 l 769 638 l 769 714 l 64 389 l 64 314 l 769 -11 l 769 65 z "},"=":{"ha":833,"x_min":68,"x_max":767,"o":"m 767 525 l 68 525 l 68 451 l 767 451 l 767 525 m 767 251 l 68 251 l 68 178 l 767 178 l 767 251 z "},">":{"ha":833,"x_min":64,"x_max":769,"o":"m 64 65 l 64 -11 l 769 314 l 769 389 l 64 714 l 64 638 l 683 351 l 64 65 z "},"?":{"ha":746,"x_min":75,"x_max":672,"o":"m 163 686 q 175 786 161 740 q 217 866 189 832 q 287 919 244 900 q 386 939 329 939 q 463 925 426 939 q 526 887 499 911 q 569 828 553 863 q 585 751 585 793 q 559 653 585 697 q 494 572 533 608 q 419 500 450 532 q 369 434 389 468 q 342 356 350 400 q 335 249 333 313 l 422 249 q 428 346 424 313 q 444 403 432 379 q 482 451 457 428 q 551 519 507 475 q 638 624 604 569 q 672 756 672 678 q 650 863 672 815 q 589 944 628 911 q 499 995 550 978 q 390 1013 449 1013 q 256 989 315 1013 q 158 923 197 965 q 97 820 118 881 q 75 686 75 760 l 163 686 m 321 0 l 438 0 l 438 147 l 321 147 l 321 0 z "},"@":{"ha":1111,"x_min":65,"x_max":1046,"o":"m 592 708 q 632 697 613 708 q 667 668 651 686 q 692 627 682 650 q 701 579 701 604 q 683 476 701 533 q 634 370 665 419 q 561 287 603 321 q 471 253 519 253 q 388 289 421 253 q 356 388 356 325 q 372 492 356 436 q 420 597 389 549 q 495 676 451 644 q 592 708 539 708 m 853 756 l 779 756 l 744 665 q 682 755 721 728 q 597 782 643 782 q 463 746 524 782 q 358 653 401 710 q 292 524 315 596 q 268 381 268 453 q 281 303 268 339 q 317 239 293 267 q 374 195 340 211 q 451 179 408 179 q 550 208 504 179 q 628 271 596 238 l 631 271 q 661 201 635 225 q 724 178 688 178 q 840 209 782 178 q 943 295 897 240 q 1017 424 989 350 q 1046 581 1046 497 q 1010 756 1046 676 q 910 892 974 835 q 761 981 847 950 q 575 1013 675 1013 q 376 973 468 1013 q 214 865 283 933 q 105 702 144 796 q 65 500 65 608 q 103 295 65 390 q 210 130 142 200 q 374 19 279 60 q 581 -21 468 -21 q 709 -3 646 -21 q 828 46 772 14 q 931 124 885 78 q 1010 226 978 169 l 939 226 q 868 149 908 183 q 781 91 828 115 q 683 54 733 67 q 581 42 632 42 q 405 76 486 42 q 265 172 324 111 q 172 314 206 232 q 139 490 139 396 q 171 670 139 586 q 261 816 203 754 q 400 914 319 878 q 578 950 481 950 q 730 925 658 950 q 856 853 801 900 q 941 739 910 807 q 972 585 972 671 q 953 465 972 526 q 901 354 933 404 q 826 272 869 304 q 738 240 783 240 q 713 250 721 240 q 704 276 706 260 q 708 313 703 292 q 719 356 713 333 l 853 756 z "},"A":{"ha":875,"x_min":-10,"x_max":885,"o":"m -10 0 l 92 0 l 211 308 l 663 308 l 783 0 l 885 0 l 496 992 l 390 992 l -10 0 m 439 897 l 631 389 l 240 389 l 439 897 z "},"B":{"ha":926,"x_min":100,"x_max":875,"o":"m 194 476 l 519 476 q 713 428 644 476 q 781 285 781 381 q 760 185 781 225 q 703 122 739 146 q 619 90 667 99 q 519 81 572 81 l 194 81 l 194 476 m 100 0 l 519 0 q 711 31 640 0 q 818 106 782 61 q 865 198 854 150 q 875 282 875 246 q 818 445 875 379 q 665 524 761 511 l 665 526 q 735 556 704 535 q 790 606 767 576 q 825 673 813 636 q 838 749 838 710 q 811 865 838 818 q 741 940 785 911 q 640 980 697 968 q 519 992 582 992 l 100 992 l 100 0 m 194 911 l 519 911 q 743 725 743 911 q 729 660 743 690 q 688 606 715 629 q 618 570 660 583 q 519 557 576 557 l 194 557 l 194 911 z "},"C":{"ha":978,"x_min":53,"x_max":933,"o":"m 919 692 q 873 829 910 769 q 781 930 836 889 q 659 992 726 971 q 521 1013 592 1013 q 316 970 404 1013 q 169 856 228 928 q 82 691 111 785 q 53 496 53 597 q 82 301 53 394 q 169 135 111 207 q 316 22 228 64 q 521 -21 404 -21 q 680 7 608 -21 q 804 87 751 35 q 890 213 857 139 q 933 378 924 286 l 839 378 q 807 253 832 311 q 742 153 782 196 q 645 85 701 110 q 521 60 589 60 q 351 97 422 60 q 235 197 281 135 q 169 336 190 258 q 147 496 147 414 q 169 655 147 576 q 235 795 190 733 q 351 894 281 857 q 521 932 422 932 q 624 916 575 932 q 715 869 674 900 q 784 794 756 839 q 825 692 813 749 l 919 692 z "},"D":{"ha":951,"x_min":100,"x_max":899,"o":"m 194 911 l 396 911 q 580 888 503 911 q 707 815 657 865 q 781 686 757 765 q 804 496 804 607 q 781 306 804 385 q 707 176 757 226 q 580 103 657 126 q 396 81 503 81 l 194 81 l 194 911 m 100 0 l 443 0 q 783 128 668 6 q 899 496 899 250 q 783 864 899 742 q 443 992 668 986 l 100 992 l 100 0 z "},"E":{"ha":824,"x_min":100,"x_max":792,"o":"m 100 0 l 792 0 l 792 81 l 194 81 l 194 472 l 747 472 l 747 553 l 194 553 l 194 911 l 785 911 l 785 992 l 100 992 l 100 0 z "},"F":{"ha":746,"x_min":100,"x_max":729,"o":"m 100 0 l 194 0 l 194 472 l 669 472 l 669 553 l 194 553 l 194 911 l 729 911 l 729 992 l 100 992 l 100 0 z "},"G":{"ha":1029,"x_min":53,"x_max":947,"o":"m 947 504 l 526 504 l 526 424 l 864 424 q 843 278 865 344 q 776 163 821 211 q 667 87 732 114 q 521 60 603 60 q 351 97 422 60 q 235 197 281 135 q 169 336 190 258 q 147 496 147 414 q 169 655 147 576 q 235 795 190 733 q 351 894 281 857 q 521 932 422 932 q 649 909 592 932 q 747 850 706 886 q 812 770 788 814 q 840 683 836 726 l 935 683 q 884 826 921 764 q 792 929 847 888 q 668 992 738 971 q 521 1013 599 1013 q 316 970 404 1013 q 169 856 228 928 q 82 691 111 785 q 53 496 53 597 q 82 301 53 394 q 169 135 111 207 q 316 22 228 64 q 521 -21 404 -21 q 626 -9 575 -21 q 721 27 676 3 q 802 90 765 51 q 864 181 839 128 l 867 181 l 879 0 l 947 0 l 947 504 z "},"H":{"ha":978,"x_min":100,"x_max":878,"o":"m 100 0 l 194 0 l 194 481 l 783 481 l 783 0 l 878 0 l 878 992 l 783 992 l 783 561 l 194 561 l 194 992 l 100 992 l 100 0 z "},"I":{"ha":308,"x_min":107,"x_max":201,"o":"m 107 0 l 201 0 l 201 992 l 107 992 l 107 0 z "},"J":{"ha":694,"x_min":29,"x_max":594,"o":"m 500 317 q 492 200 500 249 q 463 120 483 151 q 406 74 442 89 q 314 60 369 60 q 202 88 240 60 q 147 157 164 117 q 127 242 129 197 q 124 318 125 286 l 29 318 q 40 192 29 253 q 82 84 51 132 q 166 8 113 36 q 306 -21 219 -21 q 441 -3 386 -21 q 530 52 496 15 q 579 145 564 89 q 594 276 594 201 l 594 992 l 500 992 l 500 317 z "},"K":{"ha":900,"x_min":100,"x_max":919,"o":"m 100 0 l 194 0 l 194 340 l 385 517 l 797 0 l 919 0 l 456 582 l 899 992 l 771 992 l 194 458 l 194 992 l 100 992 l 100 0 z "},"L":{"ha":746,"x_min":100,"x_max":750,"o":"m 100 0 l 750 0 l 750 81 l 194 81 l 194 992 l 100 992 l 100 0 z "},"M":{"ha":1157,"x_min":97,"x_max":1060,"o":"m 97 0 l 192 0 l 192 857 l 194 857 l 535 0 l 624 0 l 963 857 l 965 857 l 965 0 l 1060 0 l 1060 992 l 921 992 l 579 122 l 236 992 l 97 992 l 97 0 z "},"N":{"ha":978,"x_min":99,"x_max":879,"o":"m 99 0 l 193 0 l 193 839 l 196 839 l 774 0 l 879 0 l 879 992 l 785 992 l 785 153 l 782 153 l 204 992 l 99 992 l 99 0 z "},"O":{"ha":1029,"x_min":47,"x_max":982,"o":"m 47 496 q 76 301 47 394 q 164 135 106 207 q 310 22 222 64 q 515 -21 399 -21 q 719 22 632 -21 q 865 135 807 64 q 953 301 924 207 q 982 496 982 394 q 953 691 982 597 q 865 856 924 785 q 719 970 807 928 q 515 1013 632 1013 q 310 970 399 1013 q 164 856 222 928 q 76 691 106 785 q 47 496 47 597 m 142 496 q 163 655 142 576 q 230 795 185 733 q 346 894 275 857 q 515 932 417 932 q 683 894 613 932 q 799 795 754 857 q 866 655 844 733 q 888 496 888 576 q 866 336 888 414 q 799 197 844 258 q 683 97 754 135 q 515 60 613 60 q 346 97 417 60 q 230 197 275 135 q 163 336 185 258 q 142 496 142 414 z "},"P":{"ha":875,"x_min":100,"x_max":835,"o":"m 100 0 l 194 0 l 194 425 l 540 425 q 661 444 607 425 q 754 499 715 463 q 814 589 793 536 q 835 708 835 642 q 814 828 835 775 q 754 917 793 881 q 661 973 715 954 q 540 992 607 992 l 100 992 l 100 0 m 194 911 l 519 911 q 679 861 618 911 q 740 708 740 811 q 679 556 740 606 q 519 506 618 506 l 194 506 l 194 911 z "},"Q":{"ha":1029,"x_min":47,"x_max":982,"o":"m 617 267 l 568 207 l 699 108 q 515 60 622 60 q 346 97 417 60 q 230 197 275 135 q 163 336 185 258 q 142 496 142 414 q 163 655 142 576 q 230 795 185 733 q 346 894 275 857 q 515 932 417 932 q 683 894 613 932 q 799 795 754 857 q 866 655 844 733 q 888 496 888 576 q 858 310 888 400 q 761 157 828 219 l 617 267 m 974 -6 l 832 103 q 944 278 907 175 q 982 496 982 381 q 953 691 982 597 q 865 856 924 785 q 719 970 807 928 q 515 1013 632 1013 q 310 970 399 1013 q 164 856 222 928 q 76 691 106 785 q 47 496 47 597 q 76 301 47 394 q 164 135 106 207 q 310 22 222 64 q 515 -21 399 -21 q 657 -2 593 -21 q 772 53 721 17 l 926 -64 l 974 -6 z "},"R":{"ha":926,"x_min":100,"x_max":882,"o":"m 100 0 l 194 0 l 194 440 l 553 440 q 658 418 619 443 q 716 352 696 393 q 742 258 736 311 q 751 154 749 206 q 753 118 753 139 q 757 76 754 97 q 765 34 760 54 q 778 0 769 14 l 882 0 q 858 51 867 18 q 844 120 849 83 q 839 193 840 157 q 836 254 838 229 q 824 337 833 299 q 795 404 815 375 q 743 452 775 433 q 663 478 711 471 l 663 481 q 807 569 758 500 q 856 733 856 639 q 831 849 856 800 q 766 930 807 899 q 670 976 725 961 q 554 992 615 992 l 100 992 l 100 0 m 194 911 l 547 911 q 708 858 654 911 q 761 714 761 806 q 744 633 761 668 q 697 572 726 597 q 629 534 668 547 q 547 521 590 521 l 194 521 l 194 911 z "},"S":{"ha":875,"x_min":46,"x_max":825,"o":"m 50 326 q 74 170 46 236 q 156 62 103 104 q 283 -1 208 19 q 446 -21 358 -21 q 596 -5 533 -21 q 701 38 658 11 q 767 96 743 64 q 805 159 792 128 q 822 218 818 190 q 825 263 825 246 q 805 367 825 324 q 749 440 785 410 q 667 490 714 469 q 568 524 621 510 l 326 583 q 269 602 296 590 q 221 631 242 614 q 188 674 200 649 q 176 735 176 700 q 197 828 176 790 q 252 888 218 865 q 331 922 286 911 q 425 932 376 932 q 526 917 478 932 q 611 874 574 903 q 671 803 649 846 q 696 704 693 761 l 790 704 q 761 838 790 781 q 681 935 732 896 q 564 993 631 974 q 424 1013 497 1013 q 253 983 319 1013 q 148 910 186 953 q 96 818 110 867 q 82 733 82 769 q 101 635 82 675 q 150 567 119 594 q 221 522 181 539 q 306 494 261 506 l 526 440 q 597 419 561 432 q 663 385 633 406 q 712 333 693 364 q 731 261 731 303 q 704 169 731 207 q 638 106 678 131 q 553 71 599 82 q 468 60 507 60 q 340 73 400 60 q 237 117 281 86 q 168 199 193 147 q 144 326 143 250 l 50 326 z "},"T":{"ha":772,"x_min":-7,"x_max":779,"o":"m -7 911 l 339 911 l 339 0 l 433 0 l 433 911 l 779 911 l 779 992 l -7 992 l -7 911 z "},"U":{"ha":951,"x_min":90,"x_max":861,"o":"m 90 357 q 112 212 90 281 q 180 92 133 143 q 299 10 226 40 q 475 -21 372 -21 q 652 10 579 -21 q 772 92 725 40 q 840 212 818 143 q 861 357 861 281 l 861 992 l 767 992 l 767 378 q 747 231 767 292 q 690 133 728 171 q 598 77 653 94 q 475 60 543 60 q 353 77 407 60 q 261 133 299 94 q 204 231 224 171 q 185 378 185 292 l 185 992 l 90 992 l 90 357 z "},"V":{"ha":824,"x_min":-10,"x_max":836,"o":"m 358 0 l 468 0 l 836 992 l 736 992 l 417 104 l 414 104 l 92 992 l -10 992 l 358 0 z "},"W":{"ha":1260,"x_min":0,"x_max":1256,"o":"m 275 0 l 378 0 l 628 888 l 631 888 l 882 0 l 982 0 l 1256 992 l 1161 992 l 935 124 l 932 124 l 689 992 l 571 992 l 329 124 l 326 124 l 101 992 l 0 992 l 275 0 z "},"X":{"ha":797,"x_min":-17,"x_max":811,"o":"m 340 511 l -17 0 l 90 0 l 396 438 l 697 0 l 811 0 l 453 508 l 792 992 l 686 992 l 396 576 l 115 992 l 4 992 l 340 511 z "},"Y":{"ha":849,"x_min":-14,"x_max":863,"o":"m 376 0 l 471 0 l 471 408 l 863 992 l 750 992 l 425 489 l 99 992 l -14 992 l 376 408 l 376 0 z "},"Z":{"ha":797,"x_min":7,"x_max":779,"o":"m 51 911 l 660 911 l 7 83 l 7 0 l 779 0 l 779 81 l 113 81 l 765 908 l 765 992 l 51 992 l 51 911 z "},"[":{"ha":335,"x_min":106,"x_max":329,"o":"m 329 -265 l 329 -192 l 193 -192 l 193 939 l 329 939 l 329 1013 l 106 1013 l 106 -265 l 329 -265 z "},"\\":{"ha":463,"x_min":-18,"x_max":481,"o":"m 481 -21 l 53 1013 l -18 1013 l 406 -21 l 481 -21 z "},"]":{"ha":335,"x_min":6,"x_max":229,"o":"m 6 1013 l 6 939 l 142 939 l 142 -192 l 6 -192 l 6 -265 l 229 -265 l 229 1013 l 6 1013 z "},"^":{"ha":833,"x_min":61,"x_max":772,"o":"m 142 331 l 415 872 l 693 331 l 772 331 l 453 960 l 381 960 l 61 331 l 142 331 z "},"_":{"ha":694,"x_min":0,"x_max":694,"o":"m 694 -174 l 694 -104 l 0 -104 l 0 -174 l 694 -174 z "},"`":{"ha":257,"x_min":-43,"x_max":211,"o":"m 140 817 l 211 817 l 65 1013 l -43 1013 l 140 817 z "},"a":{"ha":721,"x_min":44,"x_max":708,"o":"m 542 278 q 522 183 542 225 q 467 113 501 142 q 388 68 433 83 q 292 53 342 53 q 232 63 261 53 q 181 91 203 72 q 145 135 158 110 q 132 194 132 161 q 163 276 132 247 q 243 319 194 304 q 351 342 292 335 q 465 360 410 350 q 507 369 483 363 q 539 392 531 376 l 542 392 l 542 278 m 163 497 q 219 624 165 585 q 354 664 272 664 q 427 658 393 664 q 487 635 461 651 q 527 590 513 618 q 542 517 542 561 q 534 469 542 488 q 513 442 526 451 q 477 427 499 432 q 429 419 456 422 q 290 402 358 411 q 166 371 221 393 q 78 306 111 349 q 44 189 44 264 q 63 95 44 135 q 115 30 82 56 q 191 -8 147 4 q 285 -21 235 -21 q 375 -11 336 -21 q 444 17 414 -1 q 498 63 474 36 q 546 125 522 90 l 549 125 q 552 74 549 97 q 567 35 556 51 q 598 9 578 18 q 651 0 618 0 q 681 1 669 0 q 708 6 693 3 l 708 79 q 681 74 694 74 q 629 126 629 74 l 629 507 q 606 624 629 579 q 544 694 582 669 q 460 728 507 719 q 365 738 413 738 q 162 681 242 738 q 75 497 82 624 l 163 497 z "},"b":{"ha":797,"x_min":83,"x_max":744,"o":"m 657 358 q 644 248 657 303 q 602 150 631 193 q 529 80 574 107 q 422 53 485 53 q 305 80 353 53 q 227 150 257 107 q 184 248 197 193 q 171 358 171 303 q 184 469 171 414 q 227 567 197 524 q 305 637 257 610 q 422 664 353 664 q 529 637 485 664 q 602 567 574 610 q 644 469 631 524 q 657 358 657 414 m 83 0 l 164 0 l 164 136 l 167 136 q 266 21 197 63 q 422 -21 335 -21 q 565 10 504 -21 q 665 92 625 40 q 725 213 706 144 q 744 358 744 282 q 725 503 744 435 q 665 624 706 572 q 565 707 625 676 q 422 738 504 738 q 344 727 382 738 q 272 697 306 717 q 213 649 239 678 q 174 581 188 619 l 171 581 l 171 992 l 83 992 l 83 0 z "},"c":{"ha":721,"x_min":47,"x_max":682,"o":"m 676 492 q 581 676 661 615 q 386 738 501 738 q 241 707 304 738 q 135 625 178 676 q 69 504 92 574 q 47 358 47 435 q 69 212 47 281 q 135 92 92 143 q 241 10 178 40 q 386 -21 304 -21 q 585 53 507 -21 q 682 257 664 126 l 594 257 q 572 175 590 213 q 526 110 554 138 q 463 68 499 83 q 386 53 426 53 q 276 79 324 53 q 198 149 229 106 q 151 247 167 192 q 135 358 135 301 q 151 470 135 415 q 198 568 167 525 q 276 638 229 611 q 386 664 324 664 q 522 618 472 664 q 589 492 571 572 l 676 492 z "},"d":{"ha":797,"x_min":53,"x_max":714,"o":"m 140 358 q 153 469 140 414 q 195 567 167 524 q 268 637 224 610 q 375 664 313 664 q 492 637 444 664 q 570 567 540 610 q 613 469 600 524 q 626 358 626 414 q 613 248 626 303 q 570 150 600 193 q 492 80 540 107 q 375 53 444 53 q 268 80 313 53 q 195 150 224 107 q 153 248 167 193 q 140 358 140 303 m 714 992 l 626 992 l 626 581 l 624 581 q 584 649 610 619 q 525 697 558 678 q 453 727 492 717 q 375 738 415 738 q 233 707 293 738 q 132 624 172 676 q 72 503 92 572 q 53 358 53 435 q 72 213 53 282 q 132 92 92 144 q 233 10 172 40 q 375 -21 293 -21 q 453 -10 414 -21 q 528 22 493 1 q 590 72 563 43 q 631 136 617 101 l 633 136 l 633 0 l 714 0 l 714 992 z "},"e":{"ha":721,"x_min":47,"x_max":689,"o":"m 686 335 q 672 483 689 410 q 617 612 656 556 q 518 703 579 668 q 371 738 457 738 q 224 705 285 738 q 124 619 163 672 q 66 497 85 565 q 47 358 47 429 q 66 213 47 282 q 124 92 85 144 q 224 10 163 40 q 371 -21 285 -21 q 581 47 507 -21 q 683 236 656 114 l 596 236 q 521 103 575 154 q 371 53 467 53 q 263 79 308 53 q 190 146 218 106 q 149 236 163 186 q 135 335 135 286 l 686 335 m 135 408 q 158 503 140 457 q 204 585 175 550 q 275 642 233 621 q 371 664 317 664 q 465 642 424 664 q 536 585 507 621 q 581 504 565 550 q 599 408 597 458 l 135 408 z "},"f":{"ha":360,"x_min":8,"x_max":378,"o":"m 360 717 l 218 717 l 218 779 q 219 833 218 808 q 230 877 221 858 q 258 907 239 896 q 314 918 278 918 q 344 916 329 918 q 378 911 360 914 l 378 986 q 340 990 357 989 q 304 992 324 992 q 217 976 251 992 q 164 933 183 961 q 138 867 144 906 q 131 782 131 828 l 131 717 l 8 717 l 8 643 l 131 643 l 131 0 l 218 0 l 218 643 l 360 643 l 360 717 z "},"g":{"ha":772,"x_min":47,"x_max":689,"o":"m 371 82 q 265 106 310 82 q 192 170 221 131 q 149 261 163 210 q 135 367 135 313 q 148 476 135 422 q 190 571 161 529 q 264 638 219 613 q 371 664 308 664 q 477 638 433 664 q 549 568 521 611 q 589 472 576 525 q 601 367 601 419 q 587 261 601 313 q 543 170 572 210 q 471 106 514 131 q 371 82 428 82 m 689 717 l 601 717 l 601 593 l 599 593 q 511 695 572 653 q 371 738 450 738 q 233 709 293 738 q 131 631 172 681 q 69 516 90 582 q 47 376 47 450 q 65 233 47 300 q 123 115 83 165 q 224 37 163 65 q 371 8 285 8 q 508 49 449 8 q 599 156 568 89 l 601 156 l 601 58 q 547 -143 601 -74 q 371 -212 493 -212 q 300 -205 335 -212 q 237 -181 265 -197 q 188 -137 208 -164 q 161 -69 168 -110 l 74 -69 q 105 -167 78 -126 q 173 -235 132 -208 q 265 -274 214 -261 q 371 -286 317 -286 q 519 -262 458 -286 q 617 -194 579 -239 q 672 -86 654 -150 q 689 58 689 -22 l 689 717 z "},"h":{"ha":746,"x_min":82,"x_max":664,"o":"m 82 0 l 169 0 l 169 418 q 186 516 171 471 q 231 594 201 561 q 301 645 260 626 q 394 664 342 664 q 483 647 447 664 q 539 601 518 631 q 568 533 560 572 q 576 447 576 493 l 576 0 l 664 0 l 664 461 q 651 576 664 525 q 608 663 639 628 q 527 718 578 699 q 401 738 476 738 q 328 727 364 738 q 261 698 292 717 q 208 652 231 679 q 172 593 185 625 l 169 593 l 169 992 l 82 992 l 82 0 z "},"i":{"ha":257,"x_min":85,"x_max":172,"o":"m 85 0 l 172 0 l 172 717 l 85 717 l 85 0 m 85 851 l 172 851 l 172 992 l 85 992 l 85 851 z "},"j":{"ha":257,"x_min":-42,"x_max":172,"o":"m 85 -87 q 71 -162 85 -132 q 6 -192 57 -192 q -18 -192 -6 -193 q -42 -190 -31 -192 l -42 -262 q -11 -264 -26 -262 q 19 -265 4 -265 q 95 -249 65 -265 q 142 -206 125 -233 q 166 -143 160 -179 q 172 -67 172 -107 l 172 717 l 85 717 l 85 -87 m 85 851 l 172 851 l 172 992 l 85 992 l 85 851 z "},"k":{"ha":694,"x_min":83,"x_max":706,"o":"m 83 0 l 171 0 l 171 272 l 313 390 l 596 0 l 706 0 l 379 451 l 685 717 l 568 717 l 171 369 l 171 992 l 83 992 l 83 0 z "},"l":{"ha":257,"x_min":85,"x_max":172,"o":"m 85 0 l 172 0 l 172 992 l 85 992 l 85 0 z "},"m":{"ha":1157,"x_min":83,"x_max":1074,"o":"m 83 0 l 171 0 l 171 400 q 183 504 171 456 q 222 588 196 553 q 288 644 247 624 q 385 664 328 664 q 456 650 426 664 q 502 612 485 636 q 527 555 519 588 q 535 486 535 522 l 535 0 l 622 0 l 622 406 q 631 502 622 456 q 663 585 640 549 q 722 642 685 621 q 817 664 760 664 q 949 617 911 664 q 986 482 986 571 l 986 0 l 1074 0 l 1074 486 q 836 738 1074 738 q 703 703 765 738 q 608 597 640 668 q 531 703 589 668 q 403 738 474 738 q 260 699 317 738 q 168 596 203 661 l 164 596 l 164 717 l 83 717 l 83 0 z "},"n":{"ha":746,"x_min":82,"x_max":664,"o":"m 82 0 l 169 0 l 169 418 q 186 516 171 471 q 231 594 201 561 q 301 645 260 626 q 394 664 342 664 q 483 647 447 664 q 539 601 518 631 q 568 533 560 572 q 576 447 576 493 l 576 0 l 664 0 l 664 461 q 651 576 664 525 q 608 663 639 628 q 527 718 578 699 q 401 738 476 738 q 328 727 364 738 q 261 698 292 717 q 208 652 231 679 q 172 593 185 625 l 169 593 l 169 717 l 82 717 l 82 0 z "},"o":{"ha":772,"x_min":47,"x_max":725,"o":"m 386 738 q 241 707 304 738 q 135 625 178 676 q 69 504 92 574 q 47 358 47 435 q 69 212 47 281 q 135 92 92 143 q 241 10 178 40 q 386 -21 304 -21 q 531 10 468 -21 q 638 92 594 40 q 703 212 681 143 q 725 358 725 281 q 703 504 725 435 q 638 625 681 574 q 531 707 594 676 q 386 738 468 738 m 386 664 q 496 638 449 664 q 574 568 543 611 q 622 470 606 525 q 638 358 638 415 q 622 247 638 301 q 574 149 606 192 q 496 79 543 106 q 386 53 449 53 q 276 79 324 53 q 198 149 229 106 q 151 247 167 192 q 135 358 135 301 q 151 470 135 415 q 198 568 167 525 q 276 638 229 611 q 386 664 324 664 z "},"p":{"ha":797,"x_min":83,"x_max":744,"o":"m 657 358 q 644 248 657 303 q 602 150 631 193 q 529 80 574 107 q 422 53 485 53 q 305 80 353 53 q 227 150 257 107 q 184 248 197 193 q 171 358 171 303 q 183 475 171 419 q 224 572 194 531 q 301 639 253 614 q 422 664 350 664 q 529 637 485 664 q 602 567 574 610 q 644 469 631 524 q 657 358 657 414 m 83 -265 l 171 -265 l 171 136 l 174 136 q 213 68 188 97 q 272 19 239 39 q 344 -11 306 -1 q 422 -21 382 -21 q 565 10 504 -21 q 665 92 625 40 q 725 213 706 144 q 744 358 744 282 q 725 503 744 435 q 665 624 706 572 q 565 707 625 676 q 422 738 504 738 q 266 696 335 738 q 167 581 197 654 l 164 581 l 164 717 l 83 717 l 83 -265 z "},"q":{"ha":797,"x_min":53,"x_max":714,"o":"m 140 358 q 153 469 140 414 q 195 567 167 524 q 268 637 224 610 q 375 664 313 664 q 492 637 444 664 q 570 567 540 610 q 613 469 600 524 q 626 358 626 414 q 613 248 626 303 q 570 150 600 193 q 492 80 540 107 q 375 53 444 53 q 268 80 313 53 q 195 150 224 107 q 153 248 167 193 q 140 358 140 303 m 714 717 l 633 717 l 633 581 l 631 581 q 590 644 617 615 q 528 694 563 674 q 453 726 493 715 q 375 738 414 738 q 233 707 293 738 q 132 624 172 676 q 72 503 92 572 q 53 358 53 435 q 72 213 53 282 q 132 92 92 144 q 233 10 172 40 q 375 -21 293 -21 q 453 -11 415 -21 q 525 19 492 -1 q 584 68 558 39 q 624 136 610 97 l 626 136 l 626 -265 l 714 -265 l 714 717 z "},"r":{"ha":438,"x_min":83,"x_max":438,"o":"m 83 0 l 171 0 l 171 382 q 190 486 171 438 q 245 569 210 535 q 329 623 281 604 q 438 639 378 642 l 438 726 q 270 683 340 731 q 167 549 200 636 l 164 549 l 164 717 l 83 717 l 83 0 z "},"s":{"ha":668,"x_min":43,"x_max":625,"o":"m 600 507 q 576 608 597 565 q 520 681 556 651 q 438 724 485 710 q 338 738 392 738 q 242 726 290 738 q 156 692 194 715 q 92 629 117 668 q 68 536 68 590 q 83 459 68 490 q 126 406 99 428 q 189 370 153 385 q 268 344 225 356 l 381 319 q 438 303 410 313 q 489 278 467 293 q 524 242 511 264 q 538 189 538 219 q 519 126 538 151 q 471 83 500 100 q 407 60 442 67 q 342 53 372 53 q 195 98 254 53 q 131 232 136 143 l 43 232 q 133 40 54 100 q 338 -21 211 -21 q 439 -9 388 -21 q 531 28 490 3 q 599 95 572 54 q 625 194 625 136 q 607 276 625 242 q 560 335 589 311 q 495 373 532 358 q 421 393 458 388 l 304 419 q 256 434 282 425 q 207 457 229 443 q 170 491 185 471 q 156 540 156 511 q 171 599 156 575 q 211 637 186 622 q 266 658 236 651 q 325 664 296 664 q 396 655 363 664 q 455 626 429 646 q 496 577 481 607 q 513 507 511 547 l 600 507 z "},"t":{"ha":411,"x_min":10,"x_max":368,"o":"m 222 932 l 135 932 l 135 717 l 10 717 l 10 643 l 135 643 l 135 153 q 168 26 133 61 q 290 -8 203 -8 q 329 -7 310 -8 q 368 -6 349 -6 l 368 69 q 293 65 331 65 q 234 92 246 68 q 222 160 222 117 l 222 643 l 368 643 l 368 717 l 222 717 l 222 932 z "},"u":{"ha":746,"x_min":82,"x_max":664,"o":"m 664 717 l 576 717 l 576 340 q 564 234 576 286 q 525 142 551 182 q 458 77 499 101 q 361 53 417 53 q 215 103 257 53 q 169 250 172 153 l 169 717 l 82 717 l 82 251 q 96 138 82 189 q 140 52 110 88 q 217 -2 169 17 q 333 -21 265 -21 q 480 18 414 -21 q 581 129 546 57 l 583 129 l 583 0 l 664 0 l 664 717 z "},"v":{"ha":643,"x_min":3,"x_max":640,"o":"m 279 0 l 372 0 l 640 717 l 550 717 l 328 88 l 325 88 l 100 717 l 3 717 l 279 0 z "},"w":{"ha":1029,"x_min":11,"x_max":1018,"o":"m 242 0 l 338 0 l 513 603 l 515 603 l 692 0 l 788 0 l 1018 717 l 925 717 l 742 103 l 739 103 l 564 717 l 465 717 l 290 103 l 288 103 l 104 717 l 11 717 l 242 0 z "},"x":{"ha":668,"x_min":1,"x_max":667,"o":"m 1 0 l 110 0 l 331 301 l 556 0 l 667 0 l 388 374 l 646 717 l 536 717 l 336 444 l 132 717 l 22 717 l 279 372 l 1 0 z "},"y":{"ha":643,"x_min":3,"x_max":640,"o":"m 289 3 l 258 -79 q 238 -125 247 -104 q 214 -160 228 -146 q 181 -183 200 -175 q 133 -192 163 -192 q 103 -190 118 -192 q 74 -185 89 -187 l 74 -258 q 99 -263 85 -262 q 140 -265 114 -264 q 209 -258 182 -265 q 257 -233 236 -250 q 294 -185 278 -215 q 329 -110 310 -156 l 640 717 l 553 717 l 332 106 l 96 717 l 3 717 l 289 3 z "},"z":{"ha":643,"x_min":21,"x_max":619,"o":"m 600 654 l 600 717 l 53 717 l 53 643 l 489 643 l 21 71 l 21 0 l 619 0 l 619 74 l 126 74 l 600 654 z "},"{":{"ha":463,"x_min":115,"x_max":407,"o":"m 407 -265 l 407 -192 l 379 -192 q 344 -180 358 -192 q 320 -149 329 -168 q 307 -103 311 -129 q 303 -49 303 -76 l 303 147 q 290 245 303 204 q 261 313 278 286 q 228 354 244 340 q 206 372 213 368 l 206 375 q 228 393 213 379 q 261 434 244 407 q 290 502 278 461 q 303 600 303 543 l 303 796 q 307 849 303 824 q 320 895 311 875 q 344 927 329 915 q 379 939 358 939 l 407 939 l 407 1013 l 338 1013 q 247 965 279 1013 q 215 839 215 918 l 215 632 q 211 550 215 590 q 196 478 207 510 q 165 428 185 447 q 115 410 146 410 l 115 336 q 165 317 146 336 q 196 267 185 299 q 211 196 207 236 q 215 114 215 156 l 215 -92 q 247 -218 215 -171 q 338 -265 279 -265 l 407 -265 z "},"|":{"ha":308,"x_min":118,"x_max":192,"o":"m 118 -297 l 192 -297 l 192 1092 l 118 1092 l 118 -297 z "},"}":{"ha":463,"x_min":56,"x_max":347,"o":"m 56 1013 l 56 939 l 83 939 q 119 927 104 939 q 142 895 133 915 q 156 849 151 875 q 160 796 160 824 l 160 600 q 172 502 160 543 q 201 434 185 461 q 234 393 218 407 q 257 375 250 379 l 257 372 q 234 354 250 368 q 201 313 218 340 q 172 245 185 286 q 160 147 160 204 l 160 -49 q 156 -103 160 -76 q 142 -149 151 -129 q 119 -180 133 -168 q 83 -192 104 -192 l 56 -192 l 56 -265 l 125 -265 q 215 -218 183 -265 q 247 -92 247 -171 l 247 115 q 251 197 247 157 q 267 269 256 238 q 297 319 278 300 q 347 338 317 338 l 347 411 q 297 430 317 411 q 267 480 278 449 q 251 551 256 511 q 247 633 247 592 l 247 839 q 215 965 247 918 q 125 1013 183 1013 l 56 1013 z "},"~":{"ha":833,"x_min":96,"x_max":738,"o":"m 688 438 q 635 372 664 401 q 565 342 607 342 q 504 356 539 342 q 429 388 469 369 q 349 418 390 404 q 269 432 308 432 q 208 422 235 432 q 160 394 181 411 q 123 356 139 378 q 96 313 107 335 l 146 263 q 190 328 163 299 q 263 358 217 358 q 339 344 303 358 q 411 314 375 331 q 485 282 447 296 q 564 268 522 268 q 622 278 596 268 q 667 306 647 289 q 705 344 688 322 q 738 388 722 365 l 688 438 z "},"":{"ha":772,"x_min":21,"x_max":774,"o":"m 774 882 q 658 966 725 943 q 515 989 590 989 q 361 958 429 989 q 244 875 293 928 q 163 752 194 822 q 117 603 131 682 l 46 603 l 21 540 l 110 540 q 108 513 108 526 q 107 486 107 500 q 107 472 107 479 q 108 458 107 465 l 47 458 l 21 396 l 113 396 q 151 237 122 313 q 228 103 179 161 q 346 12 276 46 q 507 -22 415 -22 q 639 -1 583 -22 q 751 69 694 19 l 751 176 q 698 126 724 149 q 644 89 672 104 q 583 65 615 74 q 510 57 550 57 q 382 85 436 57 q 291 162 328 114 q 233 270 254 210 q 203 396 211 331 l 594 396 l 621 458 l 199 458 q 197 469 197 464 q 197 481 197 475 q 201 540 197 511 l 647 540 l 672 603 l 210 603 q 244 718 221 663 q 306 817 268 774 q 394 885 343 860 q 514 910 446 910 q 638 882 586 910 q 736 800 690 854 l 774 882 z "},"€":{"ha":772,"x_min":21,"x_max":774,"o":"m 774 882 q 658 966 725 943 q 515 989 590 989 q 361 958 429 989 q 244 875 293 928 q 163 752 194 822 q 117 603 131 682 l 46 603 l 21 540 l 110 540 q 108 513 108 526 q 107 486 107 500 q 107 472 107 479 q 108 458 107 465 l 47 458 l 21 396 l 113 396 q 151 237 122 313 q 228 103 179 161 q 346 12 276 46 q 507 -22 415 -22 q 639 -1 583 -22 q 751 69 694 19 l 751 176 q 698 126 724 149 q 644 89 672 104 q 583 65 615 74 q 510 57 550 57 q 382 85 436 57 q 291 162 328 114 q 233 270 254 210 q 203 396 211 331 l 594 396 l 621 458 l 199 458 q 197 469 197 464 q 197 481 197 475 q 201 540 197 511 l 647 540 l 672 603 l 210 603 q 244 718 221 663 q 306 817 268 774 q 394 885 343 860 q 514 910 446 910 q 638 882 586 910 q 736 800 690 854 l 774 882 z "},"":{"ha":386,"x_min":131,"x_max":254,"o":"m 138 147 l 138 0 l 196 0 q 194 -37 197 -17 q 182 -76 190 -57 q 161 -110 174 -94 q 131 -131 149 -125 l 131 -190 q 185 -162 163 -182 q 224 -117 208 -143 q 247 -62 239 -92 q 254 -1 254 -32 l 254 147 l 138 147 z "},"‚":{"ha":386,"x_min":131,"x_max":254,"o":"m 138 147 l 138 0 l 196 0 q 194 -37 197 -17 q 182 -76 190 -57 q 161 -110 174 -94 q 131 -131 149 -125 l 131 -190 q 185 -162 163 -182 q 224 -117 208 -143 q 247 -62 239 -92 q 254 -1 254 -32 l 254 147 l 138 147 z "},"":{"ha":772,"x_min":10,"x_max":681,"o":"m 10 -233 q 72 -240 44 -240 q 197 -214 151 -242 q 269 -140 243 -186 q 306 -35 294 -94 q 331 88 318 25 l 415 536 l 572 536 l 585 610 l 428 610 l 447 703 q 464 776 456 738 q 488 845 472 814 q 529 897 503 876 q 600 918 556 917 q 632 917 615 918 q 664 913 649 915 l 681 985 q 638 990 658 988 q 594 992 617 992 q 485 967 526 992 q 420 903 444 943 q 383 812 396 864 q 358 706 371 760 l 340 610 l 200 610 l 188 536 l 326 536 l 222 -11 q 208 -63 217 -36 q 184 -113 199 -90 q 147 -151 169 -136 q 94 -167 125 -165 q 22 -158 57 -167 l 10 -233 z "},"ƒ":{"ha":772,"x_min":10,"x_max":681,"o":"m 10 -233 q 72 -240 44 -240 q 197 -214 151 -242 q 269 -140 243 -186 q 306 -35 294 -94 q 331 88 318 25 l 415 536 l 572 536 l 585 610 l 428 610 l 447 703 q 464 776 456 738 q 488 845 472 814 q 529 897 503 876 q 600 918 556 917 q 632 917 615 918 q 664 913 649 915 l 681 985 q 638 990 658 988 q 594 992 617 992 q 485 967 526 992 q 420 903 444 943 q 383 812 396 864 q 358 706 371 760 l 340 610 l 200 610 l 188 536 l 326 536 l 222 -11 q 208 -63 217 -36 q 184 -113 199 -90 q 147 -151 169 -136 q 94 -167 125 -165 q 22 -158 57 -167 l 10 -233 z "},"":{"ha":514,"x_min":88,"x_max":425,"o":"m 308 147 l 308 0 l 367 0 q 365 -37 368 -17 q 353 -76 361 -57 q 332 -110 344 -94 q 301 -131 319 -125 l 301 -190 q 356 -162 333 -182 q 394 -117 379 -143 q 417 -62 410 -92 q 425 -1 425 -32 l 425 147 l 308 147 m 94 147 l 94 0 l 153 0 q 151 -37 154 -17 q 139 -76 147 -57 q 118 -110 131 -94 q 88 -131 106 -125 l 88 -190 q 142 -162 119 -182 q 181 -117 165 -143 q 203 -62 196 -92 q 211 -1 211 -32 l 211 147 l 94 147 z "},"„":{"ha":514,"x_min":88,"x_max":425,"o":"m 308 147 l 308 0 l 367 0 q 365 -37 368 -17 q 353 -76 361 -57 q 332 -110 344 -94 q 301 -131 319 -125 l 301 -190 q 356 -162 333 -182 q 394 -117 379 -143 q 417 -62 410 -92 q 425 -1 425 -32 l 425 147 l 308 147 m 94 147 l 94 0 l 153 0 q 151 -37 154 -17 q 139 -76 147 -57 q 118 -110 131 -94 q 88 -131 106 -125 l 88 -190 q 142 -162 119 -182 q 181 -117 165 -143 q 203 -62 196 -92 q 211 -1 211 -32 l 211 147 l 94 147 z "},"":{"ha":1389,"x_min":174,"x_max":1215,"o":"m 290 0 l 290 147 l 174 147 l 174 0 l 290 0 m 753 0 l 753 147 l 636 147 l 636 0 l 753 0 m 1215 0 l 1215 147 l 1099 147 l 1099 0 l 1215 0 z "},"…":{"ha":1389,"x_min":174,"x_max":1215,"o":"m 290 0 l 290 147 l 174 147 l 174 0 l 290 0 m 753 0 l 753 147 l 636 147 l 636 0 l 753 0 m 1215 0 l 1215 147 l 1099 147 l 1099 0 l 1215 0 z "},"":{"ha":772,"x_min":67,"x_max":706,"o":"m 342 611 l 342 -210 l 429 -210 l 429 611 l 706 611 l 706 685 l 429 685 l 429 992 l 342 992 l 342 685 l 67 685 l 67 611 l 342 611 z "},"†":{"ha":772,"x_min":67,"x_max":706,"o":"m 342 611 l 342 -210 l 429 -210 l 429 611 l 706 611 l 706 685 l 429 685 l 429 992 l 342 992 l 342 685 l 67 685 l 67 611 l 342 611 z "},"":{"ha":772,"x_min":67,"x_max":706,"o":"m 342 65 l 342 -210 l 429 -210 l 429 65 l 706 65 l 706 139 l 429 139 l 429 643 l 706 643 l 706 717 l 429 717 l 429 992 l 342 992 l 342 717 l 67 717 l 67 643 l 342 643 l 342 139 l 67 139 l 67 65 l 342 65 z "},"‡":{"ha":772,"x_min":67,"x_max":706,"o":"m 342 65 l 342 -210 l 429 -210 l 429 65 l 706 65 l 706 139 l 429 139 l 429 643 l 706 643 l 706 717 l 429 717 l 429 992 l 342 992 l 342 717 l 67 717 l 67 643 l 342 643 l 342 139 l 67 139 l 67 65 l 342 65 z "},"":{"ha":257,"x_min":-78,"x_max":335,"o":"m 176 1013 l 81 1013 l -78 817 l 3 817 l 125 958 l 244 817 l 335 817 l 176 1013 z "},"ˆ":{"ha":257,"x_min":-78,"x_max":335,"o":"m 176 1013 l 81 1013 l -78 817 l 3 817 l 125 958 l 244 817 l 335 817 l 176 1013 z "},"":{"ha":1543,"x_min":90,"x_max":1458,"o":"m 179 -47 l 246 -47 l 874 1007 l 808 1007 l 179 -47 m 760 449 q 665 431 704 449 q 600 381 625 413 q 564 307 575 350 q 553 214 553 264 q 564 121 553 164 q 600 47 575 78 q 665 -3 625 15 q 760 -21 704 -21 q 855 -3 815 -21 q 919 47 894 15 q 956 121 944 78 q 967 214 967 164 q 956 307 967 264 q 919 381 944 350 q 855 431 894 413 q 760 449 815 449 m 760 386 q 827 371 801 386 q 867 331 853 356 q 888 275 882 306 q 893 214 893 244 q 888 153 893 183 q 867 97 882 122 q 827 57 853 72 q 760 42 801 42 q 692 57 718 42 q 651 97 665 72 q 631 153 636 122 q 626 214 626 183 q 631 275 626 244 q 651 331 636 306 q 692 371 665 356 q 760 386 718 386 m 1251 449 q 1156 431 1196 449 q 1092 381 1117 413 q 1056 307 1067 350 q 1044 214 1044 264 q 1056 121 1044 164 q 1092 47 1067 78 q 1156 -3 1117 15 q 1251 -21 1196 -21 q 1347 -3 1307 -21 q 1411 47 1386 15 q 1447 121 1436 78 q 1458 214 1458 164 q 1447 307 1458 264 q 1411 381 1436 350 q 1347 431 1386 413 q 1251 449 1307 449 m 1251 386 q 1319 371 1293 386 q 1359 331 1344 356 q 1379 275 1374 306 q 1385 214 1385 244 q 1379 153 1385 183 q 1359 97 1374 122 q 1319 57 1344 72 q 1251 42 1293 42 q 1183 57 1210 42 q 1142 97 1157 72 q 1123 153 1128 122 q 1118 214 1118 183 q 1123 275 1118 244 q 1142 331 1128 306 q 1183 371 1157 356 q 1251 386 1210 386 m 297 981 q 202 963 242 981 q 138 913 163 944 q 101 839 113 882 q 90 746 90 796 q 101 653 90 696 q 138 578 113 610 q 202 529 163 547 q 297 511 242 511 q 392 529 353 511 q 457 578 432 547 q 493 653 482 610 q 504 746 504 696 q 493 839 504 796 q 457 913 482 882 q 392 963 432 944 q 297 981 353 981 m 297 918 q 365 903 339 918 q 405 863 390 888 q 425 807 419 838 q 431 746 431 776 q 425 685 431 715 q 405 629 419 654 q 365 589 390 604 q 297 574 339 574 q 229 589 256 574 q 188 629 203 604 q 169 685 174 654 q 164 746 164 715 q 169 807 164 776 q 188 863 174 838 q 229 903 203 888 q 297 918 256 918 z "},"‰":{"ha":1543,"x_min":90,"x_max":1458,"o":"m 179 -47 l 246 -47 l 874 1007 l 808 1007 l 179 -47 m 760 449 q 665 431 704 449 q 600 381 625 413 q 564 307 575 350 q 553 214 553 264 q 564 121 553 164 q 600 47 575 78 q 665 -3 625 15 q 760 -21 704 -21 q 855 -3 815 -21 q 919 47 894 15 q 956 121 944 78 q 967 214 967 164 q 956 307 967 264 q 919 381 944 350 q 855 431 894 413 q 760 449 815 449 m 760 386 q 827 371 801 386 q 867 331 853 356 q 888 275 882 306 q 893 214 893 244 q 888 153 893 183 q 867 97 882 122 q 827 57 853 72 q 760 42 801 42 q 692 57 718 42 q 651 97 665 72 q 631 153 636 122 q 626 214 626 183 q 631 275 626 244 q 651 331 636 306 q 692 371 665 356 q 760 386 718 386 m 1251 449 q 1156 431 1196 449 q 1092 381 1117 413 q 1056 307 1067 350 q 1044 214 1044 264 q 1056 121 1044 164 q 1092 47 1067 78 q 1156 -3 1117 15 q 1251 -21 1196 -21 q 1347 -3 1307 -21 q 1411 47 1386 15 q 1447 121 1436 78 q 1458 214 1458 164 q 1447 307 1458 264 q 1411 381 1436 350 q 1347 431 1386 413 q 1251 449 1307 449 m 1251 386 q 1319 371 1293 386 q 1359 331 1344 356 q 1379 275 1374 306 q 1385 214 1385 244 q 1379 153 1385 183 q 1359 97 1374 122 q 1319 57 1344 72 q 1251 42 1293 42 q 1183 57 1210 42 q 1142 97 1157 72 q 1123 153 1128 122 q 1118 214 1118 183 q 1123 275 1118 244 q 1142 331 1128 306 q 1183 371 1157 356 q 1251 386 1210 386 m 297 981 q 202 963 242 981 q 138 913 163 944 q 101 839 113 882 q 90 746 90 796 q 101 653 90 696 q 138 578 113 610 q 202 529 163 547 q 297 511 242 511 q 392 529 353 511 q 457 578 432 547 q 493 653 482 610 q 504 746 504 696 q 493 839 504 796 q 457 913 482 882 q 392 963 432 944 q 297 981 353 981 m 297 918 q 365 903 339 918 q 405 863 390 888 q 425 807 419 838 q 431 746 431 776 q 425 685 431 715 q 405 629 419 654 q 365 589 390 604 q 297 574 339 574 q 229 589 256 574 q 188 629 203 604 q 169 685 174 654 q 164 746 164 715 q 169 807 164 776 q 188 863 174 838 q 229 903 203 888 q 297 918 256 918 z "},"":{"ha":875,"x_min":46,"x_max":825,"o":"m 50 326 q 74 170 46 236 q 156 62 103 104 q 283 -1 208 19 q 446 -21 358 -21 q 596 -5 533 -21 q 701 38 658 11 q 767 96 743 64 q 805 159 792 128 q 822 218 818 190 q 825 263 825 246 q 805 367 825 324 q 749 440 785 410 q 667 490 714 469 q 568 524 621 510 l 326 583 q 269 602 296 590 q 221 631 242 614 q 188 674 200 649 q 176 735 176 700 q 197 828 176 790 q 252 888 218 865 q 331 922 286 911 q 425 932 376 932 q 526 917 478 932 q 611 874 574 903 q 671 803 649 846 q 696 704 693 761 l 790 704 q 761 838 790 781 q 681 935 732 896 q 564 993 631 974 q 424 1013 497 1013 q 253 983 319 1013 q 148 910 186 953 q 96 818 110 867 q 82 733 82 769 q 101 635 82 675 q 150 567 119 594 q 221 522 181 539 q 306 494 261 506 l 526 440 q 597 419 561 432 q 663 385 633 406 q 712 333 693 364 q 731 261 731 303 q 704 169 731 207 q 638 106 678 131 q 553 71 599 82 q 468 60 507 60 q 340 73 400 60 q 237 117 281 86 q 168 199 193 147 q 144 326 143 250 l 50 326 m 390 1071 l 486 1071 l 644 1267 l 564 1267 l 442 1125 l 322 1267 l 232 1267 l 390 1071 z "},"Š":{"ha":875,"x_min":46,"x_max":825,"o":"m 50 326 q 74 170 46 236 q 156 62 103 104 q 283 -1 208 19 q 446 -21 358 -21 q 596 -5 533 -21 q 701 38 658 11 q 767 96 743 64 q 805 159 792 128 q 822 218 818 190 q 825 263 825 246 q 805 367 825 324 q 749 440 785 410 q 667 490 714 469 q 568 524 621 510 l 326 583 q 269 602 296 590 q 221 631 242 614 q 188 674 200 649 q 176 735 176 700 q 197 828 176 790 q 252 888 218 865 q 331 922 286 911 q 425 932 376 932 q 526 917 478 932 q 611 874 574 903 q 671 803 649 846 q 696 704 693 761 l 790 704 q 761 838 790 781 q 681 935 732 896 q 564 993 631 974 q 424 1013 497 1013 q 253 983 319 1013 q 148 910 186 953 q 96 818 110 867 q 82 733 82 769 q 101 635 82 675 q 150 567 119 594 q 221 522 181 539 q 306 494 261 506 l 526 440 q 597 419 561 432 q 663 385 633 406 q 712 333 693 364 q 731 261 731 303 q 704 169 731 207 q 638 106 678 131 q 553 71 599 82 q 468 60 507 60 q 340 73 400 60 q 237 117 281 86 q 168 199 193 147 q 144 326 143 250 l 50 326 m 390 1071 l 486 1071 l 644 1267 l 564 1267 l 442 1125 l 322 1267 l 232 1267 l 390 1071 z "},"":{"ha":360,"x_min":74,"x_max":258,"o":"m 258 165 l 258 258 l 128 382 l 258 506 l 258 599 l 74 425 l 74 339 l 258 165 z "},"‹":{"ha":360,"x_min":74,"x_max":258,"o":"m 258 165 l 258 258 l 128 382 l 258 506 l 258 599 l 74 425 l 74 339 l 258 165 z "},"":{"ha":1492,"x_min":51,"x_max":1453,"o":"m 790 246 q 784 206 789 225 q 765 169 779 186 q 657 83 717 107 q 521 60 597 60 q 360 95 431 60 q 242 190 290 131 q 170 329 194 250 q 146 496 146 408 q 170 663 146 583 q 242 801 194 742 q 360 897 290 861 q 521 932 431 932 q 597 923 556 932 q 675 897 638 914 q 742 856 713 881 q 783 799 771 831 q 789 761 788 782 q 790 707 790 740 l 790 246 m 885 911 l 1449 911 l 1449 992 l 790 992 l 790 910 q 671 988 742 964 q 521 1013 600 1013 q 323 971 410 1013 q 176 858 236 929 q 83 694 115 788 q 51 496 51 600 q 83 298 51 392 q 176 133 115 204 q 323 21 236 63 q 521 -21 410 -21 q 594 -13 557 -21 q 667 9 632 -6 q 734 46 703 24 q 790 97 765 68 l 790 0 l 1453 0 l 1453 81 l 885 81 l 885 472 l 1396 472 l 1396 553 l 885 553 l 885 911 z "},"Œ":{"ha":1492,"x_min":51,"x_max":1453,"o":"m 790 246 q 784 206 789 225 q 765 169 779 186 q 657 83 717 107 q 521 60 597 60 q 360 95 431 60 q 242 190 290 131 q 170 329 194 250 q 146 496 146 408 q 170 663 146 583 q 242 801 194 742 q 360 897 290 861 q 521 932 431 932 q 597 923 556 932 q 675 897 638 914 q 742 856 713 881 q 783 799 771 831 q 789 761 788 782 q 790 707 790 740 l 790 246 m 885 911 l 1449 911 l 1449 992 l 790 992 l 790 910 q 671 988 742 964 q 521 1013 600 1013 q 323 971 410 1013 q 176 858 236 929 q 83 694 115 788 q 51 496 51 600 q 83 298 51 392 q 176 133 115 204 q 323 21 236 63 q 521 -21 410 -21 q 594 -13 557 -21 q 667 9 632 -6 q 734 46 703 24 q 790 97 765 68 l 790 0 l 1453 0 l 1453 81 l 885 81 l 885 472 l 1396 472 l 1396 553 l 885 553 l 885 911 z "},"Ž":{"ha":797,"x_min":7,"x_max":779,"o":"m 51 911 l 660 911 l 7 83 l 7 0 l 779 0 l 779 81 l 113 81 l 765 908 l 765 992 l 51 992 l 51 911 m 351 1071 l 447 1071 l 606 1267 l 525 1267 l 403 1125 l 283 1267 l 193 1267 l 351 1071 z "},"":{"ha":386,"x_min":132,"x_max":256,"o":"m 249 654 l 249 801 l 190 801 q 192 838 189 818 q 204 877 196 858 q 225 910 213 896 q 256 932 238 925 l 256 992 q 201 964 224 983 q 163 919 178 944 q 140 863 147 893 q 132 803 132 833 l 132 654 l 249 654 z "},"‘":{"ha":386,"x_min":132,"x_max":256,"o":"m 249 654 l 249 801 l 190 801 q 192 838 189 818 q 204 877 196 858 q 225 910 213 896 q 256 932 238 925 l 256 992 q 201 964 224 983 q 163 919 178 944 q 140 863 147 893 q 132 803 132 833 l 132 654 l 249 654 z "},"":{"ha":386,"x_min":131,"x_max":254,"o":"m 138 992 l 138 844 l 196 844 q 194 808 197 828 q 182 769 190 788 q 161 735 174 750 q 131 714 149 719 l 131 654 q 185 682 163 663 q 224 727 208 701 q 247 783 239 753 q 254 843 254 813 l 254 992 l 138 992 z "},"’":{"ha":386,"x_min":131,"x_max":254,"o":"m 138 992 l 138 844 l 196 844 q 194 808 197 828 q 182 769 190 788 q 161 735 174 750 q 131 714 149 719 l 131 654 q 185 682 163 663 q 224 727 208 701 q 247 783 239 753 q 254 843 254 813 l 254 992 l 138 992 z "},"":{"ha":514,"x_min":89,"x_max":426,"o":"m 419 654 l 419 801 l 361 801 q 363 838 360 818 q 375 877 367 858 q 396 910 383 896 q 426 932 408 925 l 426 992 q 372 964 394 983 q 333 919 349 944 q 310 863 318 893 q 303 803 303 833 l 303 654 l 419 654 m 206 654 l 206 801 l 147 801 q 149 838 146 818 q 161 877 153 858 q 182 910 169 896 q 213 932 194 925 l 213 992 q 158 964 181 983 q 119 919 135 944 q 97 863 104 893 q 89 803 89 833 l 89 654 l 206 654 z "},"“":{"ha":514,"x_min":89,"x_max":426,"o":"m 419 654 l 419 801 l 361 801 q 363 838 360 818 q 375 877 367 858 q 396 910 383 896 q 426 932 408 925 l 426 992 q 372 964 394 983 q 333 919 349 944 q 310 863 318 893 q 303 803 303 833 l 303 654 l 419 654 m 206 654 l 206 801 l 147 801 q 149 838 146 818 q 161 877 153 858 q 182 910 169 896 q 213 932 194 925 l 213 992 q 158 964 181 983 q 119 919 135 944 q 97 863 104 893 q 89 803 89 833 l 89 654 l 206 654 z "},"":{"ha":514,"x_min":88,"x_max":425,"o":"m 308 992 l 308 844 l 367 844 q 365 808 368 828 q 353 769 361 788 q 332 735 344 750 q 301 714 319 719 l 301 654 q 356 682 333 663 q 394 727 379 701 q 417 783 410 753 q 425 843 425 813 l 425 992 l 308 992 m 94 992 l 94 844 l 153 844 q 151 808 154 828 q 139 769 147 788 q 118 735 131 750 q 88 714 106 719 l 88 654 q 142 682 119 663 q 181 727 165 701 q 203 783 196 753 q 211 843 211 813 l 211 992 l 94 992 z "},"”":{"ha":514,"x_min":88,"x_max":425,"o":"m 308 992 l 308 844 l 367 844 q 365 808 368 828 q 353 769 361 788 q 332 735 344 750 q 301 714 319 719 l 301 654 q 356 682 333 663 q 394 727 379 701 q 417 783 410 753 q 425 843 425 813 l 425 992 l 308 992 m 94 992 l 94 844 l 153 844 q 151 808 154 828 q 139 769 147 788 q 118 735 131 750 q 88 714 106 719 l 88 654 q 142 682 119 663 q 181 727 165 701 q 203 783 196 753 q 211 843 211 813 l 211 992 l 94 992 z "},"":{"ha":694,"x_min":100,"x_max":596,"o":"m 100 496 q 119 399 100 444 q 172 320 139 354 q 251 267 206 286 q 347 247 296 247 q 444 267 399 247 q 523 320 489 286 q 576 399 557 354 q 596 496 596 444 q 576 592 596 547 q 523 671 557 638 q 444 724 489 704 q 347 743 399 743 q 251 724 296 743 q 172 671 206 704 q 119 592 139 638 q 100 496 100 547 z "},"•":{"ha":694,"x_min":100,"x_max":596,"o":"m 100 496 q 119 399 100 444 q 172 320 139 354 q 251 267 206 286 q 347 247 296 247 q 444 267 399 247 q 523 320 489 286 q 576 399 557 354 q 596 496 596 444 q 576 592 596 547 q 523 671 557 638 q 444 724 489 704 q 347 743 399 743 q 251 724 296 743 q 172 671 206 704 q 119 592 139 638 q 100 496 100 547 z "},"":{"ha":694,"x_min":0,"x_max":694,"o":"m 694 342 l 694 422 l 0 422 l 0 342 l 694 342 z "},"–":{"ha":694,"x_min":0,"x_max":694,"o":"m 694 342 l 694 422 l 0 422 l 0 342 l 694 342 z "},"":{"ha":1389,"x_min":181,"x_max":1208,"o":"m 1208 342 l 1208 422 l 181 422 l 181 342 l 1208 342 z "},"—":{"ha":1389,"x_min":181,"x_max":1208,"o":"m 1208 342 l 1208 422 l 181 422 l 181 342 l 1208 342 z "},"":{"ha":257,"x_min":-90,"x_max":346,"o":"m 293 983 q 269 936 285 956 q 221 917 253 917 q 181 926 201 917 q 138 947 161 936 q 89 968 114 958 q 33 978 64 978 q -16 966 6 978 q -53 935 -37 954 q -78 893 -68 917 q -90 844 -87 869 l -36 844 q -15 897 -36 879 q 38 915 6 915 q 76 904 56 915 q 121 882 97 893 q 171 861 144 871 q 225 851 197 851 q 273 863 251 851 q 309 894 294 875 q 333 936 324 913 q 346 983 342 960 l 293 983 z "},"˜":{"ha":257,"x_min":-90,"x_max":346,"o":"m 293 983 q 269 936 285 956 q 221 917 253 917 q 181 926 201 917 q 138 947 161 936 q 89 968 114 958 q 33 978 64 978 q -16 966 6 978 q -53 935 -37 954 q -78 893 -68 917 q -90 844 -87 869 l -36 844 q -15 897 -36 879 q 38 915 6 915 q 76 904 56 915 q 121 882 97 893 q 171 861 144 871 q 225 851 197 851 q 273 863 251 851 q 309 894 294 875 q 333 936 324 913 q 346 983 342 960 l 293 983 z "},"":{"ha":1375,"x_min":114,"x_max":1261,"o":"m 374 419 l 374 929 l 560 929 l 560 992 l 114 992 l 114 929 l 300 929 l 300 419 l 374 419 m 735 419 l 735 925 l 738 925 l 940 419 l 982 419 l 1185 925 l 1188 925 l 1188 419 l 1261 419 l 1261 992 l 1143 992 l 964 528 l 779 992 l 661 992 l 661 419 l 735 419 z "},"™":{"ha":1375,"x_min":114,"x_max":1261,"o":"m 374 419 l 374 929 l 560 929 l 560 992 l 114 992 l 114 929 l 300 929 l 300 419 l 374 419 m 735 419 l 735 925 l 738 925 l 940 419 l 982 419 l 1185 925 l 1188 925 l 1188 419 l 1261 419 l 1261 992 l 1143 992 l 964 528 l 779 992 l 661 992 l 661 419 l 735 419 z "},"":{"ha":668,"x_min":43,"x_max":625,"o":"m 600 507 q 576 608 597 565 q 520 681 556 651 q 438 724 485 710 q 338 738 392 738 q 242 726 290 738 q 156 692 194 715 q 92 629 117 668 q 68 536 68 590 q 83 459 68 490 q 126 406 99 428 q 189 370 153 385 q 268 344 225 356 l 381 319 q 438 303 410 313 q 489 278 467 293 q 524 242 511 264 q 538 189 538 219 q 519 126 538 151 q 471 83 500 100 q 407 60 442 67 q 342 53 372 53 q 195 98 254 53 q 131 232 136 143 l 43 232 q 133 40 54 100 q 338 -21 211 -21 q 439 -9 388 -21 q 531 28 490 3 q 599 95 572 54 q 625 194 625 136 q 607 276 625 242 q 560 335 589 311 q 495 373 532 358 q 421 393 458 388 l 304 419 q 256 434 282 425 q 207 457 229 443 q 170 491 185 471 q 156 540 156 511 q 171 599 156 575 q 211 637 186 622 q 266 658 236 651 q 325 664 296 664 q 396 655 363 664 q 455 626 429 646 q 496 577 481 607 q 513 507 511 547 l 600 507 m 286 817 l 382 817 l 540 1013 l 460 1013 l 338 871 l 218 1013 l 128 1013 l 286 817 z "},"š":{"ha":668,"x_min":43,"x_max":625,"o":"m 600 507 q 576 608 597 565 q 520 681 556 651 q 438 724 485 710 q 338 738 392 738 q 242 726 290 738 q 156 692 194 715 q 92 629 117 668 q 68 536 68 590 q 83 459 68 490 q 126 406 99 428 q 189 370 153 385 q 268 344 225 356 l 381 319 q 438 303 410 313 q 489 278 467 293 q 524 242 511 264 q 538 189 538 219 q 519 126 538 151 q 471 83 500 100 q 407 60 442 67 q 342 53 372 53 q 195 98 254 53 q 131 232 136 143 l 43 232 q 133 40 54 100 q 338 -21 211 -21 q 439 -9 388 -21 q 531 28 490 3 q 599 95 572 54 q 625 194 625 136 q 607 276 625 242 q 560 335 589 311 q 495 373 532 358 q 421 393 458 388 l 304 419 q 256 434 282 425 q 207 457 229 443 q 170 491 185 471 q 156 540 156 511 q 171 599 156 575 q 211 637 186 622 q 266 658 236 651 q 325 664 296 664 q 396 655 363 664 q 455 626 429 646 q 496 577 481 607 q 513 507 511 547 l 600 507 m 286 817 l 382 817 l 540 1013 l 460 1013 l 338 871 l 218 1013 l 128 1013 l 286 817 z "},"":{"ha":360,"x_min":101,"x_max":286,"o":"m 101 165 l 286 339 l 286 425 l 101 599 l 101 506 l 232 382 l 101 258 l 101 165 z "},"›":{"ha":360,"x_min":101,"x_max":286,"o":"m 101 165 l 286 339 l 286 425 l 101 599 l 101 506 l 232 382 l 101 258 l 101 165 z "},"":{"ha":1235,"x_min":50,"x_max":1199,"o":"m 368 664 q 473 638 432 664 q 538 568 514 611 q 569 472 561 525 q 578 364 578 418 q 569 254 578 310 q 538 153 561 199 q 474 81 515 108 q 367 53 433 53 q 261 78 304 53 q 190 144 218 103 q 150 236 163 185 q 138 342 138 288 q 148 455 138 397 q 185 559 158 513 q 256 635 211 606 q 368 664 300 664 m 1110 231 q 1033 100 1086 147 q 889 53 981 53 q 788 77 831 53 q 719 141 746 101 q 678 231 692 181 q 665 335 665 282 l 1199 335 q 1125 635 1199 533 q 892 738 1051 738 q 726 689 796 738 q 628 561 657 640 l 625 561 q 529 694 597 651 q 369 738 461 738 q 228 706 288 738 q 128 622 168 675 q 69 501 89 569 q 50 358 50 433 q 67 215 50 283 q 123 94 85 146 q 221 10 161 42 q 365 -21 281 -21 q 527 24 458 -21 q 622 161 596 69 l 625 161 q 661 83 636 117 q 720 26 686 49 q 795 -9 754 3 q 881 -21 836 -21 q 1086 44 1004 -21 q 1197 231 1168 110 l 1110 231 m 665 408 q 679 506 665 460 q 722 587 693 551 q 792 643 750 622 q 889 664 833 664 q 985 643 943 664 q 1054 587 1026 622 q 1097 505 1082 551 q 1111 408 1111 458 l 665 408 z "},"œ":{"ha":1235,"x_min":50,"x_max":1199,"o":"m 368 664 q 473 638 432 664 q 538 568 514 611 q 569 472 561 525 q 578 364 578 418 q 569 254 578 310 q 538 153 561 199 q 474 81 515 108 q 367 53 433 53 q 261 78 304 53 q 190 144 218 103 q 150 236 163 185 q 138 342 138 288 q 148 455 138 397 q 185 559 158 513 q 256 635 211 606 q 368 664 300 664 m 1110 231 q 1033 100 1086 147 q 889 53 981 53 q 788 77 831 53 q 719 141 746 101 q 678 231 692 181 q 665 335 665 282 l 1199 335 q 1125 635 1199 533 q 892 738 1051 738 q 726 689 796 738 q 628 561 657 640 l 625 561 q 529 694 597 651 q 369 738 461 738 q 228 706 288 738 q 128 622 168 675 q 69 501 89 569 q 50 358 50 433 q 67 215 50 283 q 123 94 85 146 q 221 10 161 42 q 365 -21 281 -21 q 527 24 458 -21 q 622 161 596 69 l 625 161 q 661 83 636 117 q 720 26 686 49 q 795 -9 754 3 q 881 -21 836 -21 q 1086 44 1004 -21 q 1197 231 1168 110 l 1110 231 m 665 408 q 679 506 665 460 q 722 587 693 551 q 792 643 750 622 q 889 664 833 664 q 985 643 943 664 q 1054 587 1026 622 q 1097 505 1082 551 q 1111 408 1111 458 l 665 408 z "},"ž":{"ha":643,"x_min":21,"x_max":619,"o":"m 600 654 l 600 717 l 53 717 l 53 643 l 489 643 l 21 71 l 21 0 l 619 0 l 619 74 l 126 74 l 600 654 m 274 817 l 369 817 l 528 1013 l 447 1013 l 325 871 l 206 1013 l 115 1013 l 274 817 z "},"":{"ha":849,"x_min":-14,"x_max":863,"o":"m 376 0 l 471 0 l 471 408 l 863 992 l 750 992 l 425 489 l 99 992 l -14 992 l 376 408 l 376 0 m 594 1094 l 594 1235 l 500 1235 l 500 1094 l 594 1094 m 349 1094 l 349 1235 l 254 1235 l 254 1094 l 349 1094 z "},"Ÿ":{"ha":849,"x_min":-14,"x_max":863,"o":"m 376 0 l 471 0 l 471 408 l 863 992 l 750 992 l 425 489 l 99 992 l -14 992 l 376 408 l 376 0 m 594 1094 l 594 1235 l 500 1235 l 500 1094 l 594 1094 m 349 1094 l 349 1235 l 254 1235 l 254 1094 l 349 1094 z "},"¡":{"ha":335,"x_min":110,"x_max":226,"o":"m 194 469 l 142 469 l 121 21 l 121 -265 l 215 -265 l 215 21 l 194 469 m 110 717 l 110 569 l 226 569 l 226 717 l 110 717 z "},"¢":{"ha":772,"x_min":75,"x_max":710,"o":"m 375 54 q 281 92 321 63 q 215 163 242 121 q 176 255 189 204 q 163 358 163 306 q 176 462 163 411 q 215 554 189 513 q 281 624 242 596 q 375 661 321 653 l 375 54 m 704 492 q 674 597 697 551 q 614 672 650 642 q 531 719 578 703 q 429 738 483 736 l 429 858 l 375 858 l 375 735 q 246 695 301 728 q 152 612 190 663 q 94 496 114 561 q 75 358 75 431 q 94 221 75 286 q 152 104 114 156 q 246 20 190 53 q 375 -19 301 -12 l 375 -161 l 429 -161 l 429 -21 q 618 57 543 -17 q 710 257 693 131 l 622 257 q 601 178 618 214 q 559 115 585 142 q 500 71 533 88 q 429 53 467 54 l 429 664 q 554 615 508 661 q 617 492 600 569 l 704 492 z "},"£":{"ha":772,"x_min":60,"x_max":753,"o":"m 64 458 l 176 458 q 204 388 193 431 q 215 313 215 344 q 203 235 215 271 q 169 167 190 199 q 119 107 147 135 q 60 54 90 79 l 110 -21 q 147 2 131 -8 q 181 20 164 13 q 217 32 197 28 q 263 36 236 36 q 338 26 306 36 q 403 6 371 17 q 470 -13 435 -6 q 550 -21 506 -21 q 660 1 613 -21 q 753 64 707 24 l 708 131 q 636 76 679 99 q 549 53 593 53 q 486 62 514 53 q 429 82 458 71 q 367 101 401 93 q 288 110 333 110 q 217 97 251 110 q 153 68 183 83 l 150 71 q 206 121 179 93 q 255 181 233 149 q 290 249 276 213 q 303 324 303 285 q 294 393 303 353 q 269 458 285 433 l 467 458 l 467 503 l 244 503 q 217 558 232 533 q 190 606 203 582 q 170 658 178 631 q 163 721 163 685 q 182 817 163 776 q 233 885 201 858 q 306 926 265 913 q 392 939 347 939 q 494 920 450 939 q 567 867 538 901 q 612 786 597 833 q 626 683 626 739 l 714 683 q 631 925 717 838 q 392 1013 546 1013 q 275 996 332 1013 q 174 944 218 979 q 102 855 129 908 q 75 726 75 801 q 97 609 75 664 q 151 503 119 554 l 64 503 l 64 458 z "},"¤":{"ha":772,"x_min":40,"x_max":732,"o":"m 40 189 l 93 136 l 171 214 q 270 157 215 178 q 388 136 325 136 q 503 156 450 136 q 600 213 557 176 l 676 136 l 729 189 l 654 264 q 711 363 690 308 q 732 481 732 418 q 711 598 732 543 q 654 697 690 653 l 729 772 l 676 825 l 600 749 q 502 805 556 785 q 388 825 449 825 q 269 804 325 825 q 171 747 214 783 l 93 825 l 40 772 l 118 694 q 63 596 82 650 q 43 481 43 542 q 63 366 43 419 q 119 268 83 313 l 40 189 m 131 481 q 151 585 131 536 q 206 669 171 633 q 288 724 240 704 q 388 744 335 744 q 488 724 440 744 q 569 669 535 704 q 624 585 604 633 q 644 481 644 536 q 624 376 644 425 q 569 292 604 328 q 488 237 535 257 q 388 217 440 217 q 288 237 335 217 q 206 292 240 257 q 151 376 171 328 q 131 481 131 425 z "},"¥":{"ha":772,"x_min":8,"x_max":760,"o":"m 153 422 l 332 422 l 340 408 l 340 307 l 153 307 l 153 244 l 340 244 l 340 0 l 428 0 l 428 244 l 618 244 l 618 307 l 428 307 l 428 408 l 436 422 l 618 422 l 618 485 l 467 485 l 760 992 l 664 992 l 385 485 l 108 992 l 8 992 l 300 485 l 153 485 l 153 422 z "},"¦":{"ha":308,"x_min":118,"x_max":192,"o":"m 118 -124 l 192 -124 l 192 224 l 118 224 l 118 -124 m 118 571 l 192 571 l 192 918 l 118 918 l 118 571 z "},"§":{"ha":772,"x_min":63,"x_max":710,"o":"m 622 319 q 589 226 622 261 q 506 169 556 190 q 400 231 461 200 q 283 298 339 263 q 189 376 228 333 q 150 471 150 418 q 182 565 150 529 q 264 621 214 600 q 369 560 308 590 q 487 494 431 529 q 583 417 543 460 q 622 319 622 375 m 710 321 q 674 438 710 389 q 586 524 639 486 q 471 592 533 561 q 356 655 408 622 q 267 725 303 688 q 232 815 232 763 q 245 872 232 849 q 281 910 258 894 q 331 932 303 925 q 388 939 358 939 q 454 925 424 939 q 506 888 485 911 q 539 833 528 865 q 549 767 550 801 l 636 767 q 567 949 636 886 q 379 1013 497 1013 q 294 999 336 1013 q 218 961 251 986 q 165 899 185 936 q 144 814 144 861 q 214 663 144 724 q 156 631 183 650 q 107 588 128 613 q 74 533 86 563 q 63 468 63 503 q 98 351 63 400 q 186 265 133 303 q 301 197 239 228 q 417 134 364 167 q 505 64 469 101 q 540 -26 540 26 q 527 -83 540 -60 q 492 -121 514 -106 q 442 -143 469 -136 q 385 -150 414 -150 q 318 -136 349 -150 q 266 -99 288 -122 q 233 -45 244 -76 q 224 22 222 -14 l 136 22 q 206 -160 136 -97 q 393 -224 275 -224 q 478 -210 436 -224 q 554 -172 521 -197 q 608 -110 588 -147 q 628 -25 628 -74 q 558 126 628 65 q 617 158 589 139 q 665 201 644 176 q 698 256 686 226 q 710 321 710 286 z "},"¨":{"ha":257,"x_min":-42,"x_max":299,"o":"m 299 840 l 299 981 l 204 981 l 204 840 l 299 840 m 53 840 l 53 981 l -42 981 l -42 840 l 53 840 z "},"©":{"ha":1111,"x_min":39,"x_max":1072,"o":"m 1072 496 q 1033 699 1072 604 q 924 863 993 793 q 760 973 854 933 q 556 1013 665 1013 q 351 973 446 1013 q 188 863 257 933 q 78 699 118 793 q 39 496 39 604 q 78 293 39 388 q 188 128 118 199 q 351 19 257 58 q 556 -21 446 -21 q 760 19 665 -21 q 924 128 854 58 q 1033 293 993 199 q 1072 496 1072 388 m 992 496 q 958 322 992 403 q 867 182 925 242 q 728 88 808 122 q 556 53 649 53 q 381 88 461 53 q 243 182 301 122 q 152 322 185 242 q 119 496 119 403 q 152 669 119 589 q 243 810 185 750 q 381 904 301 869 q 556 939 461 939 q 728 904 649 939 q 867 810 808 869 q 958 669 925 750 q 992 496 992 589 m 825 604 q 796 694 818 654 q 739 760 774 733 q 660 800 704 786 q 568 814 617 814 q 441 790 497 814 q 347 724 385 767 q 288 622 308 681 q 267 496 267 564 q 288 369 267 426 q 347 268 308 311 q 441 201 385 225 q 568 178 497 178 q 660 192 617 178 q 739 232 704 206 q 796 298 774 258 q 825 388 818 338 l 754 388 q 694 283 742 325 q 569 240 646 240 q 470 260 513 240 q 399 314 428 279 q 355 395 369 349 q 340 496 340 442 q 355 597 340 550 q 399 678 369 643 q 470 732 428 713 q 569 751 513 751 q 694 708 646 750 q 754 604 742 667 l 825 604 z "},"ª":{"ha":432,"x_min":-7,"x_max":435,"o":"m 317 697 q 303 642 317 667 q 268 601 290 618 q 216 574 246 583 q 154 565 186 565 q 121 571 138 565 q 90 588 104 576 q 67 613 76 599 q 58 647 58 628 q 75 692 58 676 q 120 717 92 708 q 187 731 149 726 q 267 743 225 736 q 294 749 278 746 q 314 763 310 753 l 317 763 l 317 697 m 75 829 q 111 903 76 879 q 194 926 146 926 q 242 922 219 926 q 281 908 264 918 q 307 879 297 897 q 317 833 317 861 q 298 802 317 810 q 243 790 279 794 q 152 781 197 786 q 72 761 107 775 q 15 720 36 747 q -7 644 -7 693 q 40 542 -7 574 q 157 511 86 511 q 328 601 271 511 l 331 601 q 342 544 331 564 q 397 524 354 524 q 418 525 408 524 q 435 528 428 526 l 435 575 q 417 571 426 571 q 382 603 385 571 l 382 842 q 367 912 382 885 q 328 954 353 939 q 270 975 303 969 q 204 981 238 981 q 67 945 119 981 q 10 829 14 910 l 75 829 z "},"«":{"ha":592,"x_min":83,"x_max":492,"o":"m 492 165 l 492 258 l 361 382 l 492 506 l 492 599 l 307 425 l 307 339 l 492 165 m 268 165 l 268 258 l 138 382 l 268 506 l 268 599 l 83 425 l 83 339 l 268 165 z "},"¬":{"ha":833,"x_min":68,"x_max":767,"o":"m 693 154 l 767 154 l 767 525 l 68 525 l 68 451 l 693 451 l 693 154 z "},"®":{"ha":1111,"x_min":39,"x_max":1072,"o":"m 556 1013 q 351 973 446 1013 q 188 863 257 933 q 78 699 118 793 q 39 496 39 604 q 78 293 39 388 q 188 128 118 199 q 351 19 257 58 q 556 -21 446 -21 q 760 19 665 -21 q 924 128 854 58 q 1033 293 993 199 q 1072 496 1072 388 q 1033 699 1072 604 q 924 863 993 793 q 760 973 854 933 q 556 1013 665 1013 m 556 939 q 728 904 649 939 q 867 810 808 869 q 958 669 925 750 q 992 496 992 589 q 958 322 992 403 q 867 182 925 242 q 728 88 808 122 q 556 53 649 53 q 381 88 461 53 q 243 182 301 122 q 152 322 185 242 q 119 496 119 403 q 152 669 119 589 q 243 810 185 750 q 381 904 301 869 q 556 939 461 939 m 442 463 l 565 463 l 733 197 l 819 197 l 642 463 q 699 480 672 468 q 747 512 726 492 q 780 560 768 532 q 792 629 792 589 q 745 752 792 710 q 597 794 699 794 l 368 794 l 368 197 l 442 197 l 442 463 m 442 525 l 442 732 l 576 732 q 628 728 603 732 q 674 712 654 724 q 706 680 694 700 q 718 629 718 660 q 703 570 718 592 q 663 539 688 549 q 605 527 638 529 q 539 525 572 525 l 442 525 z "},"¯":{"ha":257,"x_min":-100,"x_max":357,"o":"m 357 881 l 357 943 l -100 943 l -100 881 l 357 881 z "},"ˉ":{"ha":257,"x_min":-100,"x_max":357,"o":"m 357 881 l 357 943 l -100 943 l -100 881 l 357 881 z "},"°":{"ha":556,"x_min":78,"x_max":478,"o":"m 78 781 q 93 702 78 739 q 135 638 108 665 q 199 596 163 611 q 278 581 236 581 q 356 596 319 581 q 419 638 392 611 q 462 702 446 665 q 478 781 478 739 q 462 858 478 822 q 419 922 446 894 q 356 965 392 949 q 278 981 319 981 q 199 965 236 981 q 135 922 163 949 q 93 858 108 894 q 78 781 78 822 m 132 781 q 143 838 132 811 q 174 883 154 864 q 221 915 194 903 q 278 926 247 926 q 335 915 308 926 q 381 883 361 903 q 412 838 400 864 q 424 781 424 811 q 412 724 424 750 q 381 677 400 697 q 335 646 361 657 q 278 635 308 635 q 221 646 247 635 q 174 677 194 657 q 143 724 154 697 q 132 781 132 750 z "},"±":{"ha":833,"x_min":68,"x_max":767,"o":"m 381 449 l 69 449 l 69 375 l 381 375 l 381 125 l 454 125 l 454 375 l 767 375 l 767 449 l 454 449 l 454 699 l 381 699 l 381 449 m 68 0 l 767 0 l 767 74 l 68 74 l 68 0 z "},"²":{"ha":463,"x_min":21,"x_max":444,"o":"m 99 768 q 106 827 99 799 q 129 878 113 856 q 172 913 146 900 q 236 926 199 926 q 291 919 265 926 q 336 897 317 911 q 367 860 356 882 q 379 813 379 839 q 365 751 379 776 q 325 701 351 726 q 233 635 285 664 q 134 572 181 606 q 55 492 88 538 q 21 381 22 447 l 440 381 l 440 435 l 96 435 q 126 491 104 467 q 176 535 149 515 q 233 569 204 554 q 285 600 261 585 q 344 639 315 618 q 396 685 374 660 q 431 740 418 710 q 444 807 444 771 q 387 938 444 896 q 242 981 329 981 q 82 922 133 981 q 33 768 31 864 l 99 768 z "},"³":{"ha":463,"x_min":4,"x_max":454,"o":"m 188 664 l 236 664 q 344 635 299 664 q 389 547 389 606 q 375 494 389 518 q 339 455 361 471 q 288 431 317 439 q 229 422 258 422 q 115 464 156 422 q 76 572 74 506 l 11 572 q 66 421 4 474 q 231 368 128 368 q 317 380 276 368 q 388 415 358 392 q 436 472 418 438 q 454 551 454 507 q 420 648 454 610 q 324 694 386 686 l 324 697 q 403 743 375 708 q 431 826 431 778 q 414 896 431 867 q 369 944 397 925 q 304 972 340 963 q 229 981 268 981 q 79 926 132 981 q 25 783 26 871 l 90 783 q 125 886 89 846 q 229 926 161 926 q 324 901 283 926 q 365 821 365 875 q 353 775 365 794 q 323 743 342 756 q 281 724 304 731 q 236 718 258 718 l 188 718 l 188 664 z "},"´":{"ha":257,"x_min":46,"x_max":300,"o":"m 300 1013 l 192 1013 l 46 817 l 117 817 l 300 1013 z "},"µ":{"ha":746,"x_min":82,"x_max":664,"o":"m 664 717 l 576 717 l 576 340 q 564 234 576 286 q 525 142 551 182 q 458 77 499 101 q 361 53 417 53 q 215 103 257 53 q 169 250 172 153 l 169 717 l 82 717 l 82 -265 l 171 -265 l 171 28 q 247 -9 204 3 q 333 -21 289 -21 q 480 18 414 -21 q 581 129 546 57 l 583 129 l 583 0 l 664 0 l 664 717 z "},"μ":{"ha":746,"x_min":82,"x_max":664,"o":"m 664 717 l 576 717 l 576 340 q 564 234 576 286 q 525 142 551 182 q 458 77 499 101 q 361 53 417 53 q 215 103 257 53 q 169 250 172 153 l 169 717 l 82 717 l 82 -265 l 171 -265 l 171 28 q 247 -9 204 3 q 333 -21 289 -21 q 480 18 414 -21 q 581 129 546 57 l 583 129 l 583 0 l 664 0 l 664 717 z "},"¶":{"ha":833,"x_min":92,"x_max":721,"o":"m 379 -246 l 467 -246 l 467 918 l 633 918 l 633 -246 l 721 -246 l 721 992 l 401 992 q 173 922 254 992 q 92 719 92 851 q 114 617 92 665 q 174 533 136 569 q 265 476 213 497 q 379 456 318 456 l 379 -246 z "},"·":{"ha":386,"x_min":111,"x_max":275,"o":"m 193 521 q 136 497 161 521 q 111 440 111 472 q 135 382 111 407 q 193 357 160 357 q 250 381 225 357 q 275 438 275 406 q 251 496 275 471 q 193 521 226 521 z "},"∙":{"ha":386,"x_min":111,"x_max":275,"o":"m 193 521 q 136 497 161 521 q 111 440 111 472 q 135 382 111 407 q 193 357 160 357 q 250 381 225 357 q 275 438 275 406 q 251 496 275 471 q 193 521 226 521 z "},"¸":{"ha":257,"x_min":-8,"x_max":275,"o":"m 126 0 l 42 -110 l 64 -131 q 135 -119 86 -119 q 176 -133 158 -119 q 194 -172 194 -147 q 172 -218 194 -204 q 121 -232 150 -232 q 60 -226 90 -232 q 11 -212 29 -219 l -8 -257 q 56 -279 22 -272 q 122 -286 89 -286 q 176 -279 149 -286 q 225 -258 203 -272 q 261 -221 247 -243 q 275 -167 275 -199 q 259 -115 275 -135 q 219 -87 243 -96 q 167 -77 194 -78 q 114 -81 139 -76 l 175 0 l 126 0 z "},"¹":{"ha":463,"x_min":49,"x_max":282,"o":"m 49 811 l 217 811 l 217 381 l 282 381 l 282 968 l 226 968 q 205 912 219 932 q 168 882 190 892 q 116 869 146 872 q 49 865 86 867 l 49 811 z "},"º":{"ha":464,"x_min":4,"x_max":460,"o":"m 225 511 q 328 529 283 511 q 401 579 372 547 q 445 654 431 611 q 460 746 460 697 q 445 838 460 794 q 401 913 431 881 q 328 963 372 944 q 225 981 283 981 q 130 963 171 981 q 61 913 89 944 q 19 838 33 881 q 4 746 4 794 q 19 654 4 697 q 61 579 33 611 q 130 529 89 547 q 225 511 171 511 m 232 565 q 161 581 192 565 q 110 622 131 597 q 80 680 90 647 q 69 746 69 713 q 80 812 69 779 q 110 869 90 844 q 161 910 131 894 q 232 926 192 926 q 303 910 272 926 q 353 869 333 894 q 384 812 374 844 q 394 746 394 779 q 384 680 394 713 q 353 622 374 647 q 303 581 333 597 q 232 565 272 565 z "},"»":{"ha":592,"x_min":100,"x_max":508,"o":"m 324 165 l 508 339 l 508 425 l 324 599 l 324 506 l 454 382 l 324 258 l 324 165 m 100 165 l 285 339 l 285 425 l 100 599 l 100 506 l 231 382 l 100 258 l 100 165 z "},"¼":{"ha":1158,"x_min":67,"x_max":1051,"o":"m 185 -47 l 251 -47 l 879 1007 l 814 1007 l 185 -47 m 67 811 l 235 811 l 235 381 l 300 381 l 300 968 l 244 968 q 223 912 238 932 q 186 882 208 892 q 134 869 164 872 q 67 865 104 867 l 67 811 m 892 0 l 957 0 l 957 139 l 1051 139 l 1051 193 l 957 193 l 957 588 l 896 588 l 600 193 l 600 139 l 892 139 l 892 0 m 889 493 l 892 493 l 892 193 l 664 193 l 889 493 z "},"½":{"ha":1158,"x_min":67,"x_max":1090,"o":"m 185 -47 l 251 -47 l 879 1007 l 814 1007 l 185 -47 m 67 811 l 235 811 l 235 381 l 300 381 l 300 968 l 244 968 q 223 912 238 932 q 186 882 208 892 q 134 869 164 872 q 67 865 104 867 l 67 811 m 744 388 q 751 447 744 418 q 775 497 758 475 q 818 533 792 519 q 882 546 844 546 q 937 538 911 546 q 982 516 963 531 q 1013 480 1001 501 q 1025 432 1025 458 q 1011 371 1025 396 q 971 321 997 346 q 878 254 931 283 q 780 191 826 225 q 701 112 733 157 q 667 0 668 67 l 1086 0 l 1086 54 l 742 54 q 772 110 750 86 q 822 154 794 135 q 878 189 850 174 q 931 219 907 204 q 990 258 961 238 q 1042 304 1019 279 q 1077 360 1064 329 q 1090 426 1090 390 q 1033 558 1090 515 q 888 600 975 600 q 728 542 779 600 q 679 388 676 483 l 744 388 z "},"¾":{"ha":1158,"x_min":4,"x_max":1051,"o":"m 188 664 l 236 664 q 344 635 299 664 q 389 547 389 606 q 375 494 389 518 q 339 455 361 471 q 288 431 317 439 q 229 422 258 422 q 115 464 156 422 q 76 572 74 506 l 11 572 q 66 421 4 474 q 231 368 128 368 q 317 380 276 368 q 388 415 358 392 q 436 472 418 438 q 454 551 454 507 q 420 648 454 610 q 324 694 386 686 l 324 697 q 403 743 375 708 q 431 826 431 778 q 414 896 431 867 q 369 944 397 925 q 304 972 340 963 q 229 981 268 981 q 79 926 132 981 q 25 783 26 871 l 90 783 q 125 886 89 846 q 229 926 161 926 q 324 901 283 926 q 365 821 365 875 q 353 775 365 794 q 323 743 342 756 q 281 724 304 731 q 236 718 258 718 l 188 718 l 188 664 m 240 -47 l 307 -47 l 935 1007 l 869 1007 l 240 -47 m 892 0 l 957 0 l 957 139 l 1051 139 l 1051 193 l 957 193 l 957 588 l 896 588 l 600 193 l 600 139 l 892 139 l 892 0 m 889 493 l 892 493 l 892 193 l 664 193 l 889 493 z "},"¿":{"ha":746,"x_min":75,"x_max":672,"o":"m 585 40 q 572 -60 586 -14 q 531 -140 558 -106 q 460 -193 503 -174 q 361 -212 418 -212 q 285 -199 321 -212 q 222 -160 249 -185 q 178 -101 194 -136 q 163 -25 163 -67 q 188 74 163 29 q 253 154 214 118 q 327 226 296 194 q 378 292 358 258 q 406 370 397 326 q 413 478 414 414 l 325 478 q 319 381 324 414 q 303 323 315 347 q 265 275 290 299 q 196 207 240 251 q 109 103 143 157 q 75 -29 75 49 q 97 -137 75 -90 q 158 -218 119 -185 q 248 -269 197 -251 q 357 -286 299 -286 q 491 -263 432 -286 q 590 -197 550 -240 q 651 -94 629 -154 q 672 40 672 -33 l 585 40 m 426 717 l 310 717 l 310 569 l 426 569 l 426 717 z "},"À":{"ha":875,"x_min":-10,"x_max":885,"o":"m -10 0 l 92 0 l 211 308 l 663 308 l 783 0 l 885 0 l 496 992 l 390 992 l -10 0 m 439 897 l 631 389 l 240 389 l 439 897 m 450 1071 l 521 1071 l 375 1267 l 267 1267 l 450 1071 z "},"Á":{"ha":875,"x_min":-10,"x_max":885,"o":"m -10 0 l 92 0 l 211 308 l 663 308 l 783 0 l 885 0 l 496 992 l 390 992 l -10 0 m 439 897 l 631 389 l 240 389 l 439 897 m 610 1267 l 501 1267 l 356 1071 l 426 1071 l 610 1267 z "},"Â":{"ha":875,"x_min":-10,"x_max":885,"o":"m -10 0 l 92 0 l 211 308 l 663 308 l 783 0 l 885 0 l 496 992 l 390 992 l -10 0 m 439 897 l 631 389 l 240 389 l 439 897 m 486 1267 l 390 1267 l 232 1071 l 313 1071 l 435 1213 l 554 1071 l 644 1071 l 486 1267 z "},"Ã":{"ha":875,"x_min":-10,"x_max":885,"o":"m -10 0 l 92 0 l 211 308 l 663 308 l 783 0 l 885 0 l 496 992 l 390 992 l -10 0 m 439 897 l 631 389 l 240 389 l 439 897 m 603 1238 q 578 1190 594 1210 q 531 1171 563 1171 q 491 1181 511 1171 q 447 1201 471 1190 q 399 1222 424 1213 q 343 1232 374 1232 q 294 1220 315 1232 q 257 1190 272 1208 q 232 1147 242 1171 q 219 1099 222 1124 l 274 1099 q 294 1151 274 1133 q 347 1169 315 1169 q 386 1158 365 1169 q 431 1136 407 1147 q 481 1115 454 1125 q 535 1106 507 1106 q 583 1117 561 1106 q 619 1148 604 1129 q 642 1190 633 1167 q 656 1238 651 1214 l 603 1238 z "},"Ä":{"ha":875,"x_min":-10,"x_max":885,"o":"m -10 0 l 92 0 l 211 308 l 663 308 l 783 0 l 885 0 l 496 992 l 390 992 l -10 0 m 439 897 l 631 389 l 240 389 l 439 897 m 608 1094 l 608 1235 l 514 1235 l 514 1094 l 608 1094 m 363 1094 l 363 1235 l 268 1235 l 268 1094 l 363 1094 z "},"Å":{"ha":875,"x_min":-10,"x_max":885,"o":"m -10 0 l 92 0 l 211 308 l 663 308 l 783 0 l 885 0 l 496 992 l 390 992 l -10 0 m 439 897 l 631 389 l 240 389 l 439 897 m 290 1194 q 302 1137 290 1164 q 334 1090 314 1110 q 381 1058 354 1069 q 439 1046 408 1046 q 497 1058 469 1046 q 544 1090 524 1069 q 576 1137 564 1110 q 588 1194 588 1164 q 576 1252 588 1225 q 544 1299 564 1279 q 497 1331 524 1319 q 439 1343 469 1343 q 381 1331 408 1343 q 334 1299 354 1319 q 302 1252 314 1279 q 290 1194 290 1225 m 344 1194 q 372 1262 344 1235 q 439 1289 399 1289 q 506 1262 479 1289 q 533 1194 533 1235 q 506 1127 533 1154 q 439 1100 479 1100 q 372 1127 399 1100 q 344 1194 344 1154 z "},"Æ":{"ha":1260,"x_min":-10,"x_max":1228,"o":"m 713 472 l 1190 472 l 1190 553 l 713 553 l 713 911 l 1222 911 l 1222 992 l 510 992 l -10 0 l 97 0 l 258 314 l 618 314 l 618 0 l 1228 0 l 1228 81 l 713 81 l 713 472 m 300 394 l 563 911 l 618 911 l 618 394 l 300 394 z "},"Ç":{"ha":978,"x_min":53,"x_max":933,"o":"m 839 378 q 807 253 832 311 q 742 153 782 196 q 645 85 701 110 q 521 60 589 60 q 351 97 422 60 q 235 197 281 135 q 169 336 190 258 q 147 496 147 414 q 169 655 147 576 q 235 795 190 733 q 351 894 281 857 q 521 932 422 932 q 624 916 575 932 q 715 869 674 900 q 784 794 756 839 q 825 692 813 749 l 919 692 q 873 829 910 769 q 781 930 836 889 q 659 992 726 971 q 521 1013 592 1013 q 316 970 404 1013 q 169 856 228 928 q 82 691 111 785 q 53 496 53 597 q 79 310 53 400 q 158 151 106 221 q 288 36 210 82 q 472 -18 367 -10 l 401 -110 l 424 -131 q 494 -119 446 -119 q 536 -133 518 -119 q 554 -172 554 -147 q 532 -218 554 -204 q 481 -232 510 -232 q 419 -226 450 -232 q 371 -212 389 -219 l 351 -257 q 415 -279 382 -272 q 482 -286 449 -286 q 535 -279 508 -286 q 585 -258 563 -272 q 621 -221 607 -243 q 635 -167 635 -199 q 619 -115 635 -135 q 578 -87 603 -96 q 526 -77 554 -78 q 474 -81 499 -76 l 519 -21 l 521 -21 q 680 7 608 -21 q 804 87 751 35 q 890 213 857 139 q 933 378 924 286 l 839 378 z "},"È":{"ha":824,"x_min":100,"x_max":792,"o":"m 100 0 l 792 0 l 792 81 l 194 81 l 194 472 l 747 472 l 747 553 l 194 553 l 194 911 l 785 911 l 785 992 l 100 992 l 100 0 m 424 1071 l 494 1071 l 349 1267 l 240 1267 l 424 1071 z "},"É":{"ha":824,"x_min":100,"x_max":792,"o":"m 100 0 l 792 0 l 792 81 l 194 81 l 194 472 l 747 472 l 747 553 l 194 553 l 194 911 l 785 911 l 785 992 l 100 992 l 100 0 m 583 1267 l 475 1267 l 329 1071 l 400 1071 l 583 1267 z "},"Ê":{"ha":824,"x_min":100,"x_max":792,"o":"m 100 0 l 792 0 l 792 81 l 194 81 l 194 472 l 747 472 l 747 553 l 194 553 l 194 911 l 785 911 l 785 992 l 100 992 l 100 0 m 460 1267 l 364 1267 l 206 1071 l 286 1071 l 408 1213 l 528 1071 l 618 1071 l 460 1267 z "},"Ë":{"ha":824,"x_min":100,"x_max":792,"o":"m 100 0 l 792 0 l 792 81 l 194 81 l 194 472 l 747 472 l 747 553 l 194 553 l 194 911 l 785 911 l 785 992 l 100 992 l 100 0 m 582 1094 l 582 1235 l 488 1235 l 488 1094 l 582 1094 m 336 1094 l 336 1235 l 242 1235 l 242 1094 l 336 1094 z "},"Ì":{"ha":308,"x_min":-17,"x_max":238,"o":"m 107 0 l 201 0 l 201 992 l 107 992 l 107 0 m 167 1071 l 238 1071 l 92 1267 l -17 1267 l 167 1071 z "},"Í":{"ha":308,"x_min":72,"x_max":326,"o":"m 107 0 l 201 0 l 201 992 l 107 992 l 107 0 m 326 1267 l 218 1267 l 72 1071 l 143 1071 l 326 1267 z "},"Î":{"ha":308,"x_min":-51,"x_max":361,"o":"m 107 0 l 201 0 l 201 992 l 107 992 l 107 0 m 203 1267 l 107 1267 l -51 1071 l 29 1071 l 151 1213 l 271 1071 l 361 1071 l 203 1267 z "},"Ï":{"ha":308,"x_min":-15,"x_max":325,"o":"m 107 0 l 201 0 l 201 992 l 107 992 l 107 0 m 325 1094 l 325 1235 l 231 1235 l 231 1094 l 325 1094 m 79 1094 l 79 1235 l -15 1235 l -15 1094 l 79 1094 z "},"Ð":{"ha":951,"x_min":0,"x_max":899,"o":"m 194 911 l 396 911 q 580 888 503 911 q 707 815 657 865 q 781 686 757 765 q 804 496 804 607 q 781 306 804 385 q 707 176 757 226 q 580 103 657 126 q 396 81 503 81 l 194 81 l 194 483 l 522 483 l 522 546 l 194 546 l 194 911 m 100 546 l 0 546 l 0 483 l 100 483 l 100 0 l 443 0 q 783 128 668 6 q 899 496 899 250 q 783 864 899 742 q 443 992 668 986 l 100 992 l 100 546 z "},"Ñ":{"ha":978,"x_min":99,"x_max":879,"o":"m 99 0 l 193 0 l 193 839 l 196 839 l 774 0 l 879 0 l 879 992 l 785 992 l 785 153 l 782 153 l 204 992 l 99 992 l 99 0 m 654 1238 q 630 1190 646 1210 q 582 1171 614 1171 q 542 1181 563 1171 q 499 1201 522 1190 q 450 1222 475 1213 q 394 1232 425 1232 q 345 1220 367 1232 q 308 1190 324 1208 q 283 1147 293 1171 q 271 1099 274 1124 l 325 1099 q 346 1151 325 1133 q 399 1169 367 1169 q 438 1158 417 1169 q 482 1136 458 1147 q 532 1115 506 1125 q 586 1106 558 1106 q 634 1117 613 1106 q 670 1148 656 1129 q 694 1190 685 1167 q 707 1238 703 1214 l 654 1238 z "},"Ò":{"ha":1029,"x_min":47,"x_max":982,"o":"m 47 496 q 76 301 47 394 q 164 135 106 207 q 310 22 222 64 q 515 -21 399 -21 q 719 22 632 -21 q 865 135 807 64 q 953 301 924 207 q 982 496 982 394 q 953 691 982 597 q 865 856 924 785 q 719 970 807 928 q 515 1013 632 1013 q 310 970 399 1013 q 164 856 222 928 q 76 691 106 785 q 47 496 47 597 m 142 496 q 163 655 142 576 q 230 795 185 733 q 346 894 275 857 q 515 932 417 932 q 683 894 613 932 q 799 795 754 857 q 866 655 844 733 q 888 496 888 576 q 866 336 888 414 q 799 197 844 258 q 683 97 754 135 q 515 60 613 60 q 346 97 417 60 q 230 197 275 135 q 163 336 185 258 q 142 496 142 414 m 526 1071 l 597 1071 l 451 1267 l 343 1267 l 526 1071 z "},"Ó":{"ha":1029,"x_min":47,"x_max":982,"o":"m 47 496 q 76 301 47 394 q 164 135 106 207 q 310 22 222 64 q 515 -21 399 -21 q 719 22 632 -21 q 865 135 807 64 q 953 301 924 207 q 982 496 982 394 q 953 691 982 597 q 865 856 924 785 q 719 970 807 928 q 515 1013 632 1013 q 310 970 399 1013 q 164 856 222 928 q 76 691 106 785 q 47 496 47 597 m 142 496 q 163 655 142 576 q 230 795 185 733 q 346 894 275 857 q 515 932 417 932 q 683 894 613 932 q 799 795 754 857 q 866 655 844 733 q 888 496 888 576 q 866 336 888 414 q 799 197 844 258 q 683 97 754 135 q 515 60 613 60 q 346 97 417 60 q 230 197 275 135 q 163 336 185 258 q 142 496 142 414 m 686 1267 l 578 1267 l 432 1071 l 503 1071 l 686 1267 z "},"Ô":{"ha":1029,"x_min":47,"x_max":982,"o":"m 47 496 q 76 301 47 394 q 164 135 106 207 q 310 22 222 64 q 515 -21 399 -21 q 719 22 632 -21 q 865 135 807 64 q 953 301 924 207 q 982 496 982 394 q 953 691 982 597 q 865 856 924 785 q 719 970 807 928 q 515 1013 632 1013 q 310 970 399 1013 q 164 856 222 928 q 76 691 106 785 q 47 496 47 597 m 142 496 q 163 655 142 576 q 230 795 185 733 q 346 894 275 857 q 515 932 417 932 q 683 894 613 932 q 799 795 754 857 q 866 655 844 733 q 888 496 888 576 q 866 336 888 414 q 799 197 844 258 q 683 97 754 135 q 515 60 613 60 q 346 97 417 60 q 230 197 275 135 q 163 336 185 258 q 142 496 142 414 m 563 1267 l 467 1267 l 308 1071 l 389 1071 l 511 1213 l 631 1071 l 721 1071 l 563 1267 z "},"Õ":{"ha":1029,"x_min":47,"x_max":982,"o":"m 47 496 q 76 301 47 394 q 164 135 106 207 q 310 22 222 64 q 515 -21 399 -21 q 719 22 632 -21 q 865 135 807 64 q 953 301 924 207 q 982 496 982 394 q 953 691 982 597 q 865 856 924 785 q 719 970 807 928 q 515 1013 632 1013 q 310 970 399 1013 q 164 856 222 928 q 76 691 106 785 q 47 496 47 597 m 142 496 q 163 655 142 576 q 230 795 185 733 q 346 894 275 857 q 515 932 417 932 q 683 894 613 932 q 799 795 754 857 q 866 655 844 733 q 888 496 888 576 q 866 336 888 414 q 799 197 844 258 q 683 97 754 135 q 515 60 613 60 q 346 97 417 60 q 230 197 275 135 q 163 336 185 258 q 142 496 142 414 m 679 1238 q 655 1190 671 1210 q 607 1171 639 1171 q 567 1181 588 1171 q 524 1201 547 1190 q 475 1222 500 1213 q 419 1232 450 1232 q 370 1220 392 1232 q 333 1190 349 1208 q 308 1147 318 1171 q 296 1099 299 1124 l 350 1099 q 371 1151 350 1133 q 424 1169 392 1169 q 463 1158 442 1169 q 507 1136 483 1147 q 557 1115 531 1125 q 611 1106 583 1106 q 659 1117 638 1106 q 695 1148 681 1129 q 719 1190 710 1167 q 732 1238 728 1214 l 679 1238 z "},"Ö":{"ha":1029,"x_min":47,"x_max":982,"o":"m 47 496 q 76 301 47 394 q 164 135 106 207 q 310 22 222 64 q 515 -21 399 -21 q 719 22 632 -21 q 865 135 807 64 q 953 301 924 207 q 982 496 982 394 q 953 691 982 597 q 865 856 924 785 q 719 970 807 928 q 515 1013 632 1013 q 310 970 399 1013 q 164 856 222 928 q 76 691 106 785 q 47 496 47 597 m 142 496 q 163 655 142 576 q 230 795 185 733 q 346 894 275 857 q 515 932 417 932 q 683 894 613 932 q 799 795 754 857 q 866 655 844 733 q 888 496 888 576 q 866 336 888 414 q 799 197 844 258 q 683 97 754 135 q 515 60 613 60 q 346 97 417 60 q 230 197 275 135 q 163 336 185 258 q 142 496 142 414 m 685 1094 l 685 1235 l 590 1235 l 590 1094 l 685 1094 m 439 1094 l 439 1235 l 344 1235 l 344 1094 l 439 1094 z "},"×":{"ha":833,"x_min":103,"x_max":731,"o":"m 364 349 l 103 86 l 154 35 l 417 296 l 679 35 l 731 86 l 468 349 l 731 611 l 679 663 l 417 400 l 154 663 l 103 611 l 364 349 z "},"Ø":{"ha":1029,"x_min":47,"x_max":982,"o":"m 806 785 q 868 650 849 725 q 888 496 888 575 q 866 336 888 414 q 799 197 844 258 q 683 97 754 135 q 515 60 613 60 q 365 89 429 60 q 254 169 300 118 l 806 785 m 222 208 q 161 342 181 268 q 142 496 142 417 q 163 655 142 576 q 230 795 185 733 q 346 894 275 857 q 515 932 417 932 q 666 902 601 932 q 775 824 731 872 l 222 208 m 933 999 l 835 890 q 697 980 776 947 q 515 1013 618 1013 q 310 970 399 1013 q 164 856 222 928 q 76 691 106 785 q 47 496 47 597 q 75 304 47 396 q 161 140 103 213 l 51 18 l 89 -17 l 194 103 q 332 12 253 44 q 515 -21 411 -21 q 719 22 632 -21 q 865 135 807 64 q 953 301 924 207 q 982 496 982 394 q 954 690 982 597 q 868 854 926 783 l 969 967 l 933 999 z "},"Ù":{"ha":951,"x_min":90,"x_max":861,"o":"m 90 357 q 112 212 90 281 q 180 92 133 143 q 299 10 226 40 q 475 -21 372 -21 q 652 10 579 -21 q 772 92 725 40 q 840 212 818 143 q 861 357 861 281 l 861 992 l 767 992 l 767 378 q 747 231 767 292 q 690 133 728 171 q 598 77 653 94 q 475 60 543 60 q 353 77 407 60 q 261 133 299 94 q 204 231 224 171 q 185 378 185 292 l 185 992 l 90 992 l 90 357 m 488 1071 l 558 1071 l 413 1267 l 304 1267 l 488 1071 z "},"Ú":{"ha":951,"x_min":90,"x_max":861,"o":"m 90 357 q 112 212 90 281 q 180 92 133 143 q 299 10 226 40 q 475 -21 372 -21 q 652 10 579 -21 q 772 92 725 40 q 840 212 818 143 q 861 357 861 281 l 861 992 l 767 992 l 767 378 q 747 231 767 292 q 690 133 728 171 q 598 77 653 94 q 475 60 543 60 q 353 77 407 60 q 261 133 299 94 q 204 231 224 171 q 185 378 185 292 l 185 992 l 90 992 l 90 357 m 647 1267 l 539 1267 l 393 1071 l 464 1071 l 647 1267 z "},"Û":{"ha":951,"x_min":90,"x_max":861,"o":"m 90 357 q 112 212 90 281 q 180 92 133 143 q 299 10 226 40 q 475 -21 372 -21 q 652 10 579 -21 q 772 92 725 40 q 840 212 818 143 q 861 357 861 281 l 861 992 l 767 992 l 767 378 q 747 231 767 292 q 690 133 728 171 q 598 77 653 94 q 475 60 543 60 q 353 77 407 60 q 261 133 299 94 q 204 231 224 171 q 185 378 185 292 l 185 992 l 90 992 l 90 357 m 524 1267 l 428 1267 l 269 1071 l 350 1071 l 472 1213 l 592 1071 l 682 1071 l 524 1267 z "},"Ü":{"ha":951,"x_min":90,"x_max":861,"o":"m 90 357 q 112 212 90 281 q 180 92 133 143 q 299 10 226 40 q 475 -21 372 -21 q 652 10 579 -21 q 772 92 725 40 q 840 212 818 143 q 861 357 861 281 l 861 992 l 767 992 l 767 378 q 747 231 767 292 q 690 133 728 171 q 598 77 653 94 q 475 60 543 60 q 353 77 407 60 q 261 133 299 94 q 204 231 224 171 q 185 378 185 292 l 185 992 l 90 992 l 90 357 m 646 1094 l 646 1235 l 551 1235 l 551 1094 l 646 1094 m 400 1094 l 400 1235 l 306 1235 l 306 1094 l 400 1094 z "},"Ý":{"ha":849,"x_min":-14,"x_max":863,"o":"m 376 0 l 471 0 l 471 408 l 863 992 l 750 992 l 425 489 l 99 992 l -14 992 l 376 408 l 376 0 m 596 1267 l 488 1267 l 342 1071 l 413 1071 l 596 1267 z "},"Þ":{"ha":875,"x_min":100,"x_max":835,"o":"m 100 0 l 194 0 l 194 263 l 540 263 q 661 281 607 263 q 754 337 715 300 q 814 426 793 374 q 835 546 835 479 q 814 665 835 613 q 754 755 793 718 q 661 810 715 792 q 540 829 607 829 l 194 829 l 194 992 l 100 992 l 100 0 m 194 749 l 519 749 q 679 699 618 749 q 740 546 740 649 q 679 393 740 443 q 519 343 618 343 l 194 343 l 194 749 z "},"ß":{"ha":746,"x_min":85,"x_max":683,"o":"m 85 0 l 172 0 l 172 736 q 215 887 172 835 q 363 939 258 939 q 433 926 400 939 q 492 891 467 914 q 531 836 517 868 q 546 765 546 804 q 526 676 546 711 q 472 622 506 642 q 394 593 438 601 q 306 585 351 585 l 306 511 q 423 503 369 511 q 515 470 476 494 q 574 401 553 446 q 596 285 596 357 q 576 183 596 225 q 526 113 557 140 q 454 74 494 86 q 371 63 414 63 q 338 64 354 63 q 306 68 322 65 l 306 -8 q 340 -11 324 -11 q 375 -11 358 -11 q 498 10 442 -10 q 595 69 554 31 q 660 165 636 108 q 683 300 683 222 q 670 392 683 347 q 631 472 657 436 q 565 530 604 507 q 476 557 526 553 l 476 560 q 543 588 514 568 q 592 635 572 607 q 623 697 613 663 q 633 768 633 731 q 612 873 633 828 q 553 949 590 918 q 466 997 515 981 q 361 1013 417 1013 q 248 996 299 1013 q 161 946 197 979 q 105 862 125 913 q 85 743 85 811 l 85 0 z "},"à":{"ha":721,"x_min":44,"x_max":708,"o":"m 542 278 q 522 183 542 225 q 467 113 501 142 q 388 68 433 83 q 292 53 342 53 q 232 63 261 53 q 181 91 203 72 q 145 135 158 110 q 132 194 132 161 q 163 276 132 247 q 243 319 194 304 q 351 342 292 335 q 465 360 410 350 q 507 369 483 363 q 539 392 531 376 l 542 392 l 542 278 m 163 497 q 219 624 165 585 q 354 664 272 664 q 427 658 393 664 q 487 635 461 651 q 527 590 513 618 q 542 517 542 561 q 534 469 542 488 q 513 442 526 451 q 477 427 499 432 q 429 419 456 422 q 290 402 358 411 q 166 371 221 393 q 78 306 111 349 q 44 189 44 264 q 63 95 44 135 q 115 30 82 56 q 191 -8 147 4 q 285 -21 235 -21 q 375 -11 336 -21 q 444 17 414 -1 q 498 63 474 36 q 546 125 522 90 l 549 125 q 552 74 549 97 q 567 35 556 51 q 598 9 578 18 q 651 0 618 0 q 681 1 669 0 q 708 6 693 3 l 708 79 q 681 74 694 74 q 629 126 629 74 l 629 507 q 606 624 629 579 q 544 694 582 669 q 460 728 507 719 q 365 738 413 738 q 162 681 242 738 q 75 497 82 624 l 163 497 m 372 817 l 443 817 l 297 1013 l 189 1013 l 372 817 z "},"á":{"ha":721,"x_min":44,"x_max":708,"o":"m 542 278 q 522 183 542 225 q 467 113 501 142 q 388 68 433 83 q 292 53 342 53 q 232 63 261 53 q 181 91 203 72 q 145 135 158 110 q 132 194 132 161 q 163 276 132 247 q 243 319 194 304 q 351 342 292 335 q 465 360 410 350 q 507 369 483 363 q 539 392 531 376 l 542 392 l 542 278 m 163 497 q 219 624 165 585 q 354 664 272 664 q 427 658 393 664 q 487 635 461 651 q 527 590 513 618 q 542 517 542 561 q 534 469 542 488 q 513 442 526 451 q 477 427 499 432 q 429 419 456 422 q 290 402 358 411 q 166 371 221 393 q 78 306 111 349 q 44 189 44 264 q 63 95 44 135 q 115 30 82 56 q 191 -8 147 4 q 285 -21 235 -21 q 375 -11 336 -21 q 444 17 414 -1 q 498 63 474 36 q 546 125 522 90 l 549 125 q 552 74 549 97 q 567 35 556 51 q 598 9 578 18 q 651 0 618 0 q 681 1 669 0 q 708 6 693 3 l 708 79 q 681 74 694 74 q 629 126 629 74 l 629 507 q 606 624 629 579 q 544 694 582 669 q 460 728 507 719 q 365 738 413 738 q 162 681 242 738 q 75 497 82 624 l 163 497 m 532 1013 l 424 1013 l 278 817 l 349 817 l 532 1013 z "},"â":{"ha":721,"x_min":44,"x_max":708,"o":"m 542 278 q 522 183 542 225 q 467 113 501 142 q 388 68 433 83 q 292 53 342 53 q 232 63 261 53 q 181 91 203 72 q 145 135 158 110 q 132 194 132 161 q 163 276 132 247 q 243 319 194 304 q 351 342 292 335 q 465 360 410 350 q 507 369 483 363 q 539 392 531 376 l 542 392 l 542 278 m 163 497 q 219 624 165 585 q 354 664 272 664 q 427 658 393 664 q 487 635 461 651 q 527 590 513 618 q 542 517 542 561 q 534 469 542 488 q 513 442 526 451 q 477 427 499 432 q 429 419 456 422 q 290 402 358 411 q 166 371 221 393 q 78 306 111 349 q 44 189 44 264 q 63 95 44 135 q 115 30 82 56 q 191 -8 147 4 q 285 -21 235 -21 q 375 -11 336 -21 q 444 17 414 -1 q 498 63 474 36 q 546 125 522 90 l 549 125 q 552 74 549 97 q 567 35 556 51 q 598 9 578 18 q 651 0 618 0 q 681 1 669 0 q 708 6 693 3 l 708 79 q 681 74 694 74 q 629 126 629 74 l 629 507 q 606 624 629 579 q 544 694 582 669 q 460 728 507 719 q 365 738 413 738 q 162 681 242 738 q 75 497 82 624 l 163 497 m 408 1013 l 313 1013 l 154 817 l 235 817 l 357 958 l 476 817 l 567 817 l 408 1013 z "},"ã":{"ha":721,"x_min":44,"x_max":708,"o":"m 542 278 q 522 183 542 225 q 467 113 501 142 q 388 68 433 83 q 292 53 342 53 q 232 63 261 53 q 181 91 203 72 q 145 135 158 110 q 132 194 132 161 q 163 276 132 247 q 243 319 194 304 q 351 342 292 335 q 465 360 410 350 q 507 369 483 363 q 539 392 531 376 l 542 392 l 542 278 m 163 497 q 219 624 165 585 q 354 664 272 664 q 427 658 393 664 q 487 635 461 651 q 527 590 513 618 q 542 517 542 561 q 534 469 542 488 q 513 442 526 451 q 477 427 499 432 q 429 419 456 422 q 290 402 358 411 q 166 371 221 393 q 78 306 111 349 q 44 189 44 264 q 63 95 44 135 q 115 30 82 56 q 191 -8 147 4 q 285 -21 235 -21 q 375 -11 336 -21 q 444 17 414 -1 q 498 63 474 36 q 546 125 522 90 l 549 125 q 552 74 549 97 q 567 35 556 51 q 598 9 578 18 q 651 0 618 0 q 681 1 669 0 q 708 6 693 3 l 708 79 q 681 74 694 74 q 629 126 629 74 l 629 507 q 606 624 629 579 q 544 694 582 669 q 460 728 507 719 q 365 738 413 738 q 162 681 242 738 q 75 497 82 624 l 163 497 m 525 983 q 501 936 517 956 q 453 917 485 917 q 413 926 433 917 q 369 947 393 936 q 321 968 346 958 q 265 978 296 978 q 216 966 238 978 q 179 935 194 954 q 154 893 164 917 q 142 844 144 869 l 196 844 q 217 897 196 879 q 269 915 238 915 q 308 904 288 915 q 353 882 329 893 q 403 861 376 871 q 457 851 429 851 q 505 863 483 851 q 541 894 526 875 q 565 936 556 913 q 578 983 574 960 l 525 983 z "},"ä":{"ha":721,"x_min":44,"x_max":708,"o":"m 542 278 q 522 183 542 225 q 467 113 501 142 q 388 68 433 83 q 292 53 342 53 q 232 63 261 53 q 181 91 203 72 q 145 135 158 110 q 132 194 132 161 q 163 276 132 247 q 243 319 194 304 q 351 342 292 335 q 465 360 410 350 q 507 369 483 363 q 539 392 531 376 l 542 392 l 542 278 m 163 497 q 219 624 165 585 q 354 664 272 664 q 427 658 393 664 q 487 635 461 651 q 527 590 513 618 q 542 517 542 561 q 534 469 542 488 q 513 442 526 451 q 477 427 499 432 q 429 419 456 422 q 290 402 358 411 q 166 371 221 393 q 78 306 111 349 q 44 189 44 264 q 63 95 44 135 q 115 30 82 56 q 191 -8 147 4 q 285 -21 235 -21 q 375 -11 336 -21 q 444 17 414 -1 q 498 63 474 36 q 546 125 522 90 l 549 125 q 552 74 549 97 q 567 35 556 51 q 598 9 578 18 q 651 0 618 0 q 681 1 669 0 q 708 6 693 3 l 708 79 q 681 74 694 74 q 629 126 629 74 l 629 507 q 606 624 629 579 q 544 694 582 669 q 460 728 507 719 q 365 738 413 738 q 162 681 242 738 q 75 497 82 624 l 163 497 m 531 840 l 531 981 l 436 981 l 436 840 l 531 840 m 285 840 l 285 981 l 190 981 l 190 840 l 285 840 z "},"å":{"ha":721,"x_min":44,"x_max":708,"o":"m 542 278 q 522 183 542 225 q 467 113 501 142 q 388 68 433 83 q 292 53 342 53 q 232 63 261 53 q 181 91 203 72 q 145 135 158 110 q 132 194 132 161 q 163 276 132 247 q 243 319 194 304 q 351 342 292 335 q 465 360 410 350 q 507 369 483 363 q 539 392 531 376 l 542 392 l 542 278 m 163 497 q 219 624 165 585 q 354 664 272 664 q 427 658 393 664 q 487 635 461 651 q 527 590 513 618 q 542 517 542 561 q 534 469 542 488 q 513 442 526 451 q 477 427 499 432 q 429 419 456 422 q 290 402 358 411 q 166 371 221 393 q 78 306 111 349 q 44 189 44 264 q 63 95 44 135 q 115 30 82 56 q 191 -8 147 4 q 285 -21 235 -21 q 375 -11 336 -21 q 444 17 414 -1 q 498 63 474 36 q 546 125 522 90 l 549 125 q 552 74 549 97 q 567 35 556 51 q 598 9 578 18 q 651 0 618 0 q 681 1 669 0 q 708 6 693 3 l 708 79 q 681 74 694 74 q 629 126 629 74 l 629 507 q 606 624 629 579 q 544 694 582 669 q 460 728 507 719 q 365 738 413 738 q 162 681 242 738 q 75 497 82 624 l 163 497 m 213 940 q 224 883 213 910 q 256 835 236 856 q 303 803 276 815 q 361 792 331 792 q 419 803 392 792 q 466 835 446 815 q 498 883 486 856 q 510 940 510 910 q 498 998 510 971 q 466 1045 486 1025 q 419 1077 446 1065 q 361 1089 392 1089 q 303 1077 331 1089 q 256 1045 276 1065 q 224 998 236 1025 q 213 940 213 971 m 267 940 q 294 1008 267 981 q 361 1035 321 1035 q 428 1008 401 1035 q 456 940 456 981 q 428 873 456 900 q 361 846 401 846 q 294 873 321 846 q 267 940 267 900 z "},"æ":{"ha":1208,"x_min":44,"x_max":1168,"o":"m 629 408 q 642 505 628 458 q 686 587 657 551 q 758 643 715 622 q 854 664 800 664 q 948 642 906 664 q 1019 585 990 621 q 1065 504 1049 550 q 1081 408 1081 458 l 629 408 m 542 278 q 522 183 542 225 q 467 113 501 142 q 388 68 433 83 q 292 53 342 53 q 232 63 261 53 q 181 91 203 72 q 145 135 158 110 q 132 194 132 161 q 163 276 132 247 q 243 319 194 304 q 351 342 292 335 q 465 360 410 350 q 507 369 483 363 q 539 392 531 376 l 542 392 l 542 278 m 1168 335 q 1153 485 1168 413 q 1101 615 1138 558 q 1006 704 1065 671 q 858 738 947 738 q 781 728 819 738 q 708 701 742 719 q 648 654 675 682 q 607 589 621 626 l 604 589 q 573 664 597 635 q 515 709 549 693 q 441 731 481 725 q 365 738 401 738 q 162 681 242 738 q 75 497 82 624 l 163 497 q 219 624 165 585 q 354 664 272 664 q 427 658 393 664 q 487 635 461 651 q 527 590 513 618 q 542 517 542 561 q 534 469 542 488 q 513 442 526 451 q 477 427 499 432 q 429 419 456 422 q 290 402 358 411 q 166 371 221 393 q 78 306 111 349 q 44 189 44 264 q 63 95 44 135 q 115 30 82 56 q 191 -8 147 4 q 285 -21 235 -21 q 381 -10 332 -21 q 474 24 431 1 q 547 81 517 47 q 585 160 576 115 l 588 160 q 687 24 619 69 q 850 -21 754 -21 q 1055 45 975 -21 q 1163 232 1135 111 l 1075 232 q 1003 100 1056 147 q 863 53 951 53 q 754 75 800 53 q 679 136 708 97 q 638 226 650 175 q 629 335 625 278 l 1168 335 z "},"ç":{"ha":721,"x_min":47,"x_max":682,"o":"m 594 257 q 572 175 590 213 q 526 110 554 138 q 463 68 499 83 q 386 53 426 53 q 276 79 324 53 q 198 149 229 106 q 151 247 167 192 q 135 358 135 301 q 151 470 135 415 q 198 568 167 525 q 276 638 229 611 q 386 664 324 664 q 522 618 472 664 q 589 492 571 572 l 676 492 q 581 676 661 615 q 386 738 501 738 q 241 707 304 738 q 135 625 178 676 q 69 504 92 574 q 47 358 47 435 q 67 222 47 286 q 124 106 86 157 q 217 23 161 56 q 344 -18 272 -10 l 274 -110 l 296 -131 q 367 -119 318 -119 q 408 -133 390 -119 q 426 -172 426 -147 q 404 -218 426 -204 q 353 -232 382 -232 q 292 -226 322 -232 q 243 -212 261 -219 l 224 -257 q 288 -279 254 -272 q 354 -286 321 -286 q 408 -279 381 -286 q 457 -258 435 -272 q 493 -221 479 -243 q 507 -167 507 -199 q 491 -115 507 -135 q 451 -87 475 -96 q 399 -77 426 -78 q 346 -81 371 -76 l 392 -21 q 587 55 510 -18 q 682 257 664 128 l 594 257 z "},"è":{"ha":721,"x_min":47,"x_max":689,"o":"m 686 335 q 672 483 689 410 q 617 612 656 556 q 518 703 579 668 q 371 738 457 738 q 224 705 285 738 q 124 619 163 672 q 66 497 85 565 q 47 358 47 429 q 66 213 47 282 q 124 92 85 144 q 224 10 163 40 q 371 -21 285 -21 q 581 47 507 -21 q 683 236 656 114 l 596 236 q 521 103 575 154 q 371 53 467 53 q 263 79 308 53 q 190 146 218 106 q 149 236 163 186 q 135 335 135 286 l 686 335 m 135 408 q 158 503 140 457 q 204 585 175 550 q 275 642 233 621 q 371 664 317 664 q 465 642 424 664 q 536 585 507 621 q 581 504 565 550 q 599 408 597 458 l 135 408 m 372 817 l 443 817 l 297 1013 l 189 1013 l 372 817 z "},"é":{"ha":721,"x_min":47,"x_max":689,"o":"m 686 335 q 672 483 689 410 q 617 612 656 556 q 518 703 579 668 q 371 738 457 738 q 224 705 285 738 q 124 619 163 672 q 66 497 85 565 q 47 358 47 429 q 66 213 47 282 q 124 92 85 144 q 224 10 163 40 q 371 -21 285 -21 q 581 47 507 -21 q 683 236 656 114 l 596 236 q 521 103 575 154 q 371 53 467 53 q 263 79 308 53 q 190 146 218 106 q 149 236 163 186 q 135 335 135 286 l 686 335 m 135 408 q 158 503 140 457 q 204 585 175 550 q 275 642 233 621 q 371 664 317 664 q 465 642 424 664 q 536 585 507 621 q 581 504 565 550 q 599 408 597 458 l 135 408 m 532 1013 l 424 1013 l 278 817 l 349 817 l 532 1013 z "},"ê":{"ha":721,"x_min":47,"x_max":689,"o":"m 686 335 q 672 483 689 410 q 617 612 656 556 q 518 703 579 668 q 371 738 457 738 q 224 705 285 738 q 124 619 163 672 q 66 497 85 565 q 47 358 47 429 q 66 213 47 282 q 124 92 85 144 q 224 10 163 40 q 371 -21 285 -21 q 581 47 507 -21 q 683 236 656 114 l 596 236 q 521 103 575 154 q 371 53 467 53 q 263 79 308 53 q 190 146 218 106 q 149 236 163 186 q 135 335 135 286 l 686 335 m 135 408 q 158 503 140 457 q 204 585 175 550 q 275 642 233 621 q 371 664 317 664 q 465 642 424 664 q 536 585 507 621 q 581 504 565 550 q 599 408 597 458 l 135 408 m 408 1013 l 313 1013 l 154 817 l 235 817 l 357 958 l 476 817 l 567 817 l 408 1013 z "},"ë":{"ha":721,"x_min":47,"x_max":689,"o":"m 686 335 q 672 483 689 410 q 617 612 656 556 q 518 703 579 668 q 371 738 457 738 q 224 705 285 738 q 124 619 163 672 q 66 497 85 565 q 47 358 47 429 q 66 213 47 282 q 124 92 85 144 q 224 10 163 40 q 371 -21 285 -21 q 581 47 507 -21 q 683 236 656 114 l 596 236 q 521 103 575 154 q 371 53 467 53 q 263 79 308 53 q 190 146 218 106 q 149 236 163 186 q 135 335 135 286 l 686 335 m 135 408 q 158 503 140 457 q 204 585 175 550 q 275 642 233 621 q 371 664 317 664 q 465 642 424 664 q 536 585 507 621 q 581 504 565 550 q 599 408 597 458 l 135 408 m 531 840 l 531 981 l 436 981 l 436 840 l 531 840 m 285 840 l 285 981 l 190 981 l 190 840 l 285 840 z "},"ì":{"ha":257,"x_min":-43,"x_max":211,"o":"m 172 0 l 172 717 l 85 717 l 85 0 l 172 0 m 140 817 l 211 817 l 65 1013 l -43 1013 l 140 817 z "},"í":{"ha":257,"x_min":46,"x_max":300,"o":"m 172 0 l 172 717 l 85 717 l 85 0 l 172 0 m 300 1013 l 192 1013 l 46 817 l 117 817 l 300 1013 z "},"î":{"ha":257,"x_min":-78,"x_max":335,"o":"m 172 0 l 172 717 l 85 717 l 85 0 l 172 0 m 176 1013 l 81 1013 l -78 817 l 3 817 l 125 958 l 244 817 l 335 817 l 176 1013 z "},"ï":{"ha":257,"x_min":-42,"x_max":299,"o":"m 172 0 l 172 717 l 85 717 l 85 0 l 172 0 m 299 840 l 299 981 l 204 981 l 204 840 l 299 840 m 53 840 l 53 981 l -42 981 l -42 840 l 53 840 z "},"ð":{"ha":772,"x_min":47,"x_max":717,"o":"m 383 629 q 497 605 450 629 q 572 540 543 581 q 615 449 601 500 q 629 347 629 399 q 613 228 629 282 q 566 135 597 175 q 488 74 535 96 q 381 53 442 53 q 269 77 315 53 q 192 142 222 101 q 149 235 163 182 q 135 344 135 288 q 149 453 135 401 q 192 544 163 506 q 269 606 222 583 q 383 629 317 629 m 188 828 l 233 783 l 379 865 q 483 766 436 819 q 564 647 529 713 l 561 647 q 479 691 531 679 q 376 703 428 703 q 236 674 297 703 q 133 597 175 646 q 69 483 90 547 q 47 346 47 418 q 67 201 47 268 q 128 85 88 135 q 231 8 168 36 q 376 -21 293 -21 q 528 9 464 -21 q 633 90 592 39 q 696 211 675 142 q 717 358 717 281 q 696 527 717 449 q 638 673 675 606 q 552 797 601 740 q 444 901 503 854 l 596 986 l 550 1031 l 392 942 q 320 990 357 968 q 247 1031 283 1011 l 197 982 q 263 946 231 965 q 326 906 294 926 l 188 828 z "},"ñ":{"ha":746,"x_min":82,"x_max":664,"o":"m 82 0 l 169 0 l 169 418 q 186 516 171 471 q 231 594 201 561 q 301 645 260 626 q 394 664 342 664 q 483 647 447 664 q 539 601 518 631 q 568 533 560 572 q 576 447 576 493 l 576 0 l 664 0 l 664 461 q 651 576 664 525 q 608 663 639 628 q 527 718 578 699 q 401 738 476 738 q 328 727 364 738 q 261 698 292 717 q 208 652 231 679 q 172 593 185 625 l 169 593 l 169 717 l 82 717 l 82 0 m 538 983 q 513 936 529 956 q 465 917 497 917 q 426 926 446 917 q 382 947 406 936 q 333 968 358 958 q 278 978 308 978 q 228 966 250 978 q 192 935 207 954 q 167 893 176 917 q 154 844 157 869 l 208 844 q 229 897 208 879 q 282 915 250 915 q 321 904 300 915 q 365 882 342 893 q 415 861 389 871 q 469 851 442 851 q 517 863 496 851 q 553 894 539 875 q 577 936 568 913 q 590 983 586 960 l 538 983 z "},"ò":{"ha":772,"x_min":47,"x_max":725,"o":"m 386 738 q 241 707 304 738 q 135 625 178 676 q 69 504 92 574 q 47 358 47 435 q 69 212 47 281 q 135 92 92 143 q 241 10 178 40 q 386 -21 304 -21 q 531 10 468 -21 q 638 92 594 40 q 703 212 681 143 q 725 358 725 281 q 703 504 725 435 q 638 625 681 574 q 531 707 594 676 q 386 738 468 738 m 386 664 q 496 638 449 664 q 574 568 543 611 q 622 470 606 525 q 638 358 638 415 q 622 247 638 301 q 574 149 606 192 q 496 79 543 106 q 386 53 449 53 q 276 79 324 53 q 198 149 229 106 q 151 247 167 192 q 135 358 135 301 q 151 470 135 415 q 198 568 167 525 q 276 638 229 611 q 386 664 324 664 m 399 817 l 469 817 l 324 1013 l 215 1013 l 399 817 z "},"ó":{"ha":772,"x_min":47,"x_max":725,"o":"m 386 738 q 241 707 304 738 q 135 625 178 676 q 69 504 92 574 q 47 358 47 435 q 69 212 47 281 q 135 92 92 143 q 241 10 178 40 q 386 -21 304 -21 q 531 10 468 -21 q 638 92 594 40 q 703 212 681 143 q 725 358 725 281 q 703 504 725 435 q 638 625 681 574 q 531 707 594 676 q 386 738 468 738 m 386 664 q 496 638 449 664 q 574 568 543 611 q 622 470 606 525 q 638 358 638 415 q 622 247 638 301 q 574 149 606 192 q 496 79 543 106 q 386 53 449 53 q 276 79 324 53 q 198 149 229 106 q 151 247 167 192 q 135 358 135 301 q 151 470 135 415 q 198 568 167 525 q 276 638 229 611 q 386 664 324 664 m 558 1013 l 450 1013 l 304 817 l 375 817 l 558 1013 z "},"ô":{"ha":772,"x_min":47,"x_max":725,"o":"m 386 738 q 241 707 304 738 q 135 625 178 676 q 69 504 92 574 q 47 358 47 435 q 69 212 47 281 q 135 92 92 143 q 241 10 178 40 q 386 -21 304 -21 q 531 10 468 -21 q 638 92 594 40 q 703 212 681 143 q 725 358 725 281 q 703 504 725 435 q 638 625 681 574 q 531 707 594 676 q 386 738 468 738 m 386 664 q 496 638 449 664 q 574 568 543 611 q 622 470 606 525 q 638 358 638 415 q 622 247 638 301 q 574 149 606 192 q 496 79 543 106 q 386 53 449 53 q 276 79 324 53 q 198 149 229 106 q 151 247 167 192 q 135 358 135 301 q 151 470 135 415 q 198 568 167 525 q 276 638 229 611 q 386 664 324 664 m 435 1013 l 339 1013 l 181 817 l 261 817 l 383 958 l 503 817 l 593 817 l 435 1013 z "},"õ":{"ha":772,"x_min":47,"x_max":725,"o":"m 386 738 q 241 707 304 738 q 135 625 178 676 q 69 504 92 574 q 47 358 47 435 q 69 212 47 281 q 135 92 92 143 q 241 10 178 40 q 386 -21 304 -21 q 531 10 468 -21 q 638 92 594 40 q 703 212 681 143 q 725 358 725 281 q 703 504 725 435 q 638 625 681 574 q 531 707 594 676 q 386 738 468 738 m 386 664 q 496 638 449 664 q 574 568 543 611 q 622 470 606 525 q 638 358 638 415 q 622 247 638 301 q 574 149 606 192 q 496 79 543 106 q 386 53 449 53 q 276 79 324 53 q 198 149 229 106 q 151 247 167 192 q 135 358 135 301 q 151 470 135 415 q 198 568 167 525 q 276 638 229 611 q 386 664 324 664 m 551 983 q 527 936 543 956 q 479 917 511 917 q 440 926 460 917 q 396 947 419 936 q 347 968 372 958 q 292 978 322 978 q 242 966 264 978 q 206 935 221 954 q 181 893 190 917 q 168 844 171 869 l 222 844 q 243 897 222 879 q 296 915 264 915 q 335 904 314 915 q 379 882 356 893 q 429 861 403 871 q 483 851 456 851 q 531 863 510 851 q 567 894 553 875 q 591 936 582 913 q 604 983 600 960 l 551 983 z "},"ö":{"ha":772,"x_min":47,"x_max":725,"o":"m 386 738 q 241 707 304 738 q 135 625 178 676 q 69 504 92 574 q 47 358 47 435 q 69 212 47 281 q 135 92 92 143 q 241 10 178 40 q 386 -21 304 -21 q 531 10 468 -21 q 638 92 594 40 q 703 212 681 143 q 725 358 725 281 q 703 504 725 435 q 638 625 681 574 q 531 707 594 676 q 386 738 468 738 m 386 664 q 496 638 449 664 q 574 568 543 611 q 622 470 606 525 q 638 358 638 415 q 622 247 638 301 q 574 149 606 192 q 496 79 543 106 q 386 53 449 53 q 276 79 324 53 q 198 149 229 106 q 151 247 167 192 q 135 358 135 301 q 151 470 135 415 q 198 568 167 525 q 276 638 229 611 q 386 664 324 664 m 557 840 l 557 981 l 463 981 l 463 840 l 557 840 m 311 840 l 311 981 l 217 981 l 217 840 l 311 840 z "},"÷":{"ha":833,"x_min":68,"x_max":767,"o":"m 767 313 l 767 386 l 68 386 l 68 313 l 767 313 m 339 629 q 363 574 339 597 q 418 551 386 551 q 472 576 449 551 q 494 629 494 600 q 472 684 494 661 q 417 707 449 707 q 362 684 385 707 q 339 629 339 661 m 339 69 q 363 15 339 38 q 418 -8 386 -8 q 472 16 449 -8 q 494 69 494 40 q 472 124 494 101 q 417 147 449 147 q 362 124 385 147 q 339 69 339 101 z "},"ø":{"ha":772,"x_min":40,"x_max":725,"o":"m 185 171 q 147 260 158 213 q 135 358 135 308 q 151 470 135 415 q 198 568 167 525 q 276 638 229 611 q 386 664 324 664 q 489 641 444 664 q 564 581 533 618 l 185 171 m 589 544 q 626 456 614 504 q 638 358 638 408 q 622 247 638 301 q 574 149 606 192 q 496 79 543 106 q 386 53 449 53 q 283 76 328 53 q 210 135 239 99 l 589 544 m 694 721 l 622 643 q 521 713 581 688 q 386 738 461 738 q 241 707 304 738 q 135 625 178 676 q 69 504 92 574 q 47 358 47 435 q 67 221 47 286 q 125 106 86 156 l 40 13 l 71 -15 l 153 74 q 253 4 194 29 q 386 -21 311 -21 q 531 10 468 -21 q 638 92 594 40 q 703 212 681 143 q 725 358 725 281 q 706 494 725 429 q 650 611 688 558 l 725 693 l 694 721 z "},"ù":{"ha":746,"x_min":82,"x_max":664,"o":"m 664 717 l 576 717 l 576 340 q 564 234 576 286 q 525 142 551 182 q 458 77 499 101 q 361 53 417 53 q 215 103 257 53 q 169 250 172 153 l 169 717 l 82 717 l 82 251 q 96 138 82 189 q 140 52 110 88 q 217 -2 169 17 q 333 -21 265 -21 q 480 18 414 -21 q 581 129 546 57 l 583 129 l 583 0 l 664 0 l 664 717 m 385 817 l 456 817 l 310 1013 l 201 1013 l 385 817 z "},"ú":{"ha":746,"x_min":82,"x_max":664,"o":"m 664 717 l 576 717 l 576 340 q 564 234 576 286 q 525 142 551 182 q 458 77 499 101 q 361 53 417 53 q 215 103 257 53 q 169 250 172 153 l 169 717 l 82 717 l 82 251 q 96 138 82 189 q 140 52 110 88 q 217 -2 169 17 q 333 -21 265 -21 q 480 18 414 -21 q 581 129 546 57 l 583 129 l 583 0 l 664 0 l 664 717 m 544 1013 l 436 1013 l 290 817 l 361 817 l 544 1013 z "},"û":{"ha":746,"x_min":82,"x_max":664,"o":"m 664 717 l 576 717 l 576 340 q 564 234 576 286 q 525 142 551 182 q 458 77 499 101 q 361 53 417 53 q 215 103 257 53 q 169 250 172 153 l 169 717 l 82 717 l 82 251 q 96 138 82 189 q 140 52 110 88 q 217 -2 169 17 q 333 -21 265 -21 q 480 18 414 -21 q 581 129 546 57 l 583 129 l 583 0 l 664 0 l 664 717 m 421 1013 l 325 1013 l 167 817 l 247 817 l 369 958 l 489 817 l 579 817 l 421 1013 z "},"ü":{"ha":746,"x_min":82,"x_max":664,"o":"m 664 717 l 576 717 l 576 340 q 564 234 576 286 q 525 142 551 182 q 458 77 499 101 q 361 53 417 53 q 215 103 257 53 q 169 250 172 153 l 169 717 l 82 717 l 82 251 q 96 138 82 189 q 140 52 110 88 q 217 -2 169 17 q 333 -21 265 -21 q 480 18 414 -21 q 581 129 546 57 l 583 129 l 583 0 l 664 0 l 664 717 m 543 840 l 543 981 l 449 981 l 449 840 l 543 840 m 297 840 l 297 981 l 203 981 l 203 840 l 297 840 z "},"ý":{"ha":643,"x_min":3,"x_max":640,"o":"m 289 3 l 258 -79 q 238 -125 247 -104 q 214 -160 228 -146 q 181 -183 200 -175 q 133 -192 163 -192 q 103 -190 118 -192 q 74 -185 89 -187 l 74 -258 q 99 -263 85 -262 q 140 -265 114 -264 q 209 -258 182 -265 q 257 -233 236 -250 q 294 -185 278 -215 q 329 -110 310 -156 l 640 717 l 553 717 l 332 106 l 96 717 l 3 717 l 289 3 m 493 1013 l 385 1013 l 239 817 l 310 817 l 493 1013 z "},"þ":{"ha":797,"x_min":83,"x_max":744,"o":"m 657 358 q 644 248 657 303 q 602 150 631 193 q 529 80 574 107 q 422 53 485 53 q 305 80 353 53 q 227 150 257 107 q 184 248 197 193 q 171 358 171 303 q 184 469 171 414 q 227 567 197 524 q 305 637 257 610 q 422 664 353 664 q 529 637 485 664 q 602 567 574 610 q 644 469 631 524 q 657 358 657 414 m 83 -265 l 171 -265 l 171 136 l 174 136 q 213 68 188 97 q 272 19 239 39 q 344 -11 306 -1 q 422 -21 382 -21 q 565 10 504 -21 q 665 92 625 40 q 725 213 706 144 q 744 358 744 282 q 725 503 744 435 q 665 624 706 572 q 565 707 625 676 q 422 738 504 738 q 344 727 382 738 q 272 697 306 717 q 213 649 239 678 q 174 581 188 619 l 171 581 l 171 992 l 83 992 l 83 -265 z "},"ÿ":{"ha":643,"x_min":3,"x_max":640,"o":"m 289 3 l 258 -79 q 238 -125 247 -104 q 214 -160 228 -146 q 181 -183 200 -175 q 133 -192 163 -192 q 103 -190 118 -192 q 74 -185 89 -187 l 74 -258 q 99 -263 85 -262 q 140 -265 114 -264 q 209 -258 182 -265 q 257 -233 236 -250 q 294 -185 278 -215 q 329 -110 310 -156 l 640 717 l 553 717 l 332 106 l 96 717 l 3 717 l 289 3 m 492 840 l 492 981 l 397 981 l 397 840 l 492 840 m 246 840 l 246 981 l 151 981 l 151 840 l 246 840 z "},"ﬁ":{"ha":617,"x_min":8,"x_max":532,"o":"m 444 0 l 532 0 l 532 717 l 444 717 l 444 0 m 131 0 l 218 0 l 218 643 l 360 643 l 360 717 l 218 717 l 218 779 q 219 833 218 808 q 230 877 221 858 q 258 907 239 896 q 314 918 278 918 q 344 916 329 918 q 378 911 360 914 l 378 986 q 340 990 357 989 q 304 992 324 992 q 217 976 251 992 q 164 933 183 961 q 138 867 144 906 q 131 782 131 828 l 131 717 l 8 717 l 8 643 l 131 643 l 131 0 m 444 851 l 532 851 l 532 992 l 444 992 l 444 851 z "},"ﬂ":{"ha":617,"x_min":8,"x_max":532,"o":"m 131 0 l 218 0 l 218 643 l 360 643 l 360 717 l 218 717 l 218 779 q 219 833 218 808 q 230 877 221 858 q 258 907 239 896 q 314 918 278 918 q 344 916 329 918 q 378 911 360 914 l 378 986 q 340 990 357 989 q 304 992 324 992 q 217 976 251 992 q 164 933 183 961 q 138 867 144 906 q 131 782 131 828 l 131 717 l 8 717 l 8 643 l 131 643 l 131 0 m 444 0 l 532 0 l 532 992 l 444 992 l 444 0 z "},"˘":{"ha":257,"x_min":-71,"x_max":328,"o":"m -71 1003 q -11 872 -64 918 q 126 826 42 826 q 263 874 210 826 q 328 1003 317 921 l 274 1003 q 256 954 269 975 q 223 919 243 933 q 178 897 203 904 q 126 889 153 889 q 75 896 100 889 q 31 917 50 903 q -2 953 11 932 q -17 1003 -15 975 l -71 1003 z "},"˙":{"ha":257,"x_min":82,"x_max":176,"o":"m 176 840 l 176 981 l 82 981 l 82 840 l 176 840 z "},"˚":{"ha":257,"x_min":-19,"x_max":278,"o":"m -19 940 q -8 883 -19 910 q 24 835 4 856 q 72 803 44 815 q 129 792 99 792 q 187 803 160 792 q 234 835 214 815 q 266 883 254 856 q 278 940 278 910 q 266 998 278 971 q 234 1045 254 1025 q 187 1077 214 1065 q 129 1089 160 1089 q 72 1077 99 1089 q 24 1045 44 1065 q -8 998 4 1025 q -19 940 -19 971 m 35 940 q 62 1008 35 981 q 129 1035 89 1035 q 197 1008 169 1035 q 224 940 224 981 q 197 873 224 900 q 129 846 169 846 q 62 873 89 846 q 35 940 35 900 z "},"˝":{"ha":257,"x_min":-46,"x_max":417,"o":"m 25 817 l 200 1013 l 94 1013 l -46 817 l 25 817 m 242 817 l 417 1013 l 311 1013 l 171 817 l 242 817 z "},"˛":{"ha":257,"x_min":51,"x_max":317,"o":"m 210 3 q 126 -58 157 -29 q 78 -110 94 -86 q 56 -152 61 -135 q 51 -179 51 -169 q 81 -261 51 -229 q 185 -293 110 -293 q 253 -272 221 -293 q 317 -200 286 -251 l 276 -182 q 246 -220 265 -201 q 200 -239 226 -239 q 158 -223 176 -239 q 139 -174 139 -207 q 144 -137 139 -156 q 163 -98 149 -119 q 201 -52 176 -76 q 263 3 225 -28 l 210 3 z "},"ˇ":{"ha":257,"x_min":-78,"x_max":335,"o":"m 81 817 l 176 817 l 335 1013 l 254 1013 l 132 871 l 13 1013 l -78 1013 l 81 817 z "},"ı":{"ha":257,"x_min":85,"x_max":172,"o":"m 172 0 l 172 717 l 85 717 l 85 0 l 172 0 z "},"∕":{"ha":232,"x_min":-231,"x_max":464,"o":"m -231 -47 l -164 -47 l 464 1007 l 399 1007 l -231 -47 z "},"Ł":{"ha":746,"x_min":-14,"x_max":750,"o":"m 100 425 l -14 347 l -14 269 l 100 349 l 100 0 l 750 0 l 750 81 l 194 81 l 194 414 l 532 646 l 532 724 l 194 490 l 194 992 l 100 992 l 100 425 z "},"ł":{"ha":257,"x_min":-8,"x_max":265,"o":"m 85 549 l -8 472 l -8 396 l 85 472 l 85 0 l 172 0 l 172 544 l 265 621 l 265 697 l 172 621 l 172 992 l 85 992 l 85 549 z "},"−":{"ha":833,"x_min":68,"x_max":767,"o":"m 767 386 l 68 386 l 68 313 l 767 313 l 767 386 z "}}}
